<svg xmlns="http://www.w3.org/2000/svg" viewBox="0 0 500 500"><g id="freepik--background-complete--inject-32"><g><rect x="18.55" y="21.57" width="466.56" height="437.53" style="fill:#f0f0f0;"></rect><polygon points="18.65 263.43 48.88 263.43 48.88 330.03 109.28 330.03 109.28 184.57 155.19 184.57 155.19 233.55 221.71 233.55 221.71 330.28 288.35 330.28 288.35 257.43 364.93 257.43 364.93 377.32 399.95 377.32 399.95 280.94 485.01 280.94 485.01 460.34 18.65 460.34 18.65 263.43" style="fill:#e6e6e6;"></polygon><path d="M189.05,21.57c-1.65,0-170.6,122.6-170.6,122.6v81.11L310.35,21.57h-121.3Z" style="fill:#f5f5f5;"></path><path d="M485.01,80.05c-1.65,0-466.36,299.76-466.36,299.76v81.11L485.01,179.97V80.05Z" style="fill:#f5f5f5;"></path></g><g><g><g><path d="M443.92,330.2h-180.75c-3.23,0-5.86-2.63-5.86-5.86V61.06c0-3.23,2.63-5.86,5.86-5.86h180.75c3.23,0,5.86,2.63,5.86,5.86V324.34c0,3.23-2.63,5.86-5.86,5.86ZM263.17,55.45c-3.09,0-5.61,2.52-5.61,5.61V324.34c0,3.09,2.52,5.61,5.61,5.61h180.75c3.09,0,5.61-2.52,5.61-5.61V61.06c0-3.09-2.52-5.61-5.61-5.61h-180.75Z" style="fill:#e0e0e0;"></path><path d="M235.49,330.2H54.75c-3.23,0-5.86-2.63-5.86-5.86V61.06c0-3.23,2.63-5.86,5.86-5.86H235.49c3.23,0,5.86,2.63,5.86,5.86V324.34c0,3.23-2.63,5.86-5.86,5.86ZM54.75,55.45c-3.09,0-5.61,2.52-5.61,5.61V324.34c0,3.09,2.52,5.61,5.61,5.61H235.49c3.09,0,5.61-2.52,5.61-5.61V61.06c0-3.09-2.52-5.61-5.61-5.61H54.75Z" style="fill:#e0e0e0;"></path></g><rect x="0" y="391.27" width="500" height=".25" style="fill:#e0e0e0;"></rect></g><rect x="51.67" y="405.53" width="16.06" height=".25" style="fill:#e0e0e0;"></rect><rect x="170.35" y="402.82" width="53.53" height=".25" style="fill:#e0e0e0;"></rect><rect x="68.73" y="414.82" width="36.25" height=".25" style="fill:#e0e0e0;"></rect><rect x="378.35" y="402.69" width="43.19" height=".25" style="fill:#e0e0e0;"></rect><rect x="430.45" y="402.69" width="6.33" height=".25" style="fill:#e0e0e0;"></rect><rect x="316.21" y="408.92" width="53.89" height=".25" style="fill:#e0e0e0;"></rect></g></g><g id="freepik--Shadow--inject-32"><path d="M460.61,473.65c0,3.39-93.52,6.13-208.88,6.13s-208.88-2.75-208.88-6.13,93.52-6.13,208.88-6.13,208.88,2.75,208.88,6.13Z" style="fill:#f5f5f5;"></path></g><g id="freepik--Window--inject-32"><g><rect x="84.17" y="21.57" width="10.78" height="438.76" style="fill:#FFC100;"></rect><rect x="408.87" y="21.57" width="10.78" height="438.76" style="fill:#FFC100;"></rect><rect x="18.45" y="77.26" width="466.56" height="5.63" style="fill:#FFC100;"></rect><rect x="18.45" y="388.32" width="466.56" height="5.63" style="fill:#FFC100;"></rect></g></g><g id="freepik--Character--inject-32"><g><g><polygon points="126.28 346.62 125.48 346.01 160.76 299.79 194.65 346.02 193.84 346.61 160.75 301.46 126.28 346.62" style="fill:#263238;"></polygon><path d="M166.64,299.39c0,3.63-2.95,6.58-6.58,6.58s-6.58-2.95-6.58-6.58,2.95-6.58,6.58-6.58,6.58,2.95,6.58,6.58Z" style="fill:#263238;"></path><polygon points="164.28 301.13 155.84 301.13 155.84 21.57 156.84 21.57 156.84 300.13 163.28 300.13 163.28 22.24 164.28 22.24 164.28 301.13" style="fill:#263238;"></polygon></g><g><g><path d="M225.57,192.75c-.14,.57-.31,1.13-.52,1.69-1.15,3.15-3.24,5.89-6,7.85-.69,.5-1.43,.95-2.19,1.33-6.01,3.16-13.42,2-18.14-2.84-6.07-6.03-5.91-12.99-6.6-24.77-.18-2.53,.24-5.07,1.23-7.41,3.48-8.23,13.08-12.13,21.45-8.71h0c11.71,4.71,13.32,22.23,10.77,32.85Z" style="fill:#cd877b;"></path><path d="M194.88,217.57c5.91,5.27,20.37,3.33,20.37,3.33,0,0,9.03-2.44,7.12-5.2-5.31-.86-7.89-3.3-8.95-6.44-.58-1.94-.76-3.96-.53-5.97,.08-1.12,.23-2.23,.45-3.33l-17.88-13.01c2.34,8.59,5.21,24.4-.58,30.62Z" style="fill:#cd877b;"></path><path d="M219.01,182.03l2.58,.95-1.28-5.19s3.78-5.67,0-10.59c0,0,6.28-2.51,.38-7.9-2.19-2.01-.76-.61-7.97-3.68-3.91-1.69-16.14-1.81-16.74,3.08,0,0-8.81,0-9.76,14.74-.56,8.75,2.85,17.28,9.33,23.31,0,0,10.64,2.47,15.86-1.73,5.22-4.2,7.6-12.99,7.6-12.99Z" style="fill:#263238;"></path><path d="M212.2,182.87c.46,2.24,1.92,4.17,3.98,5.23,2.44,1.02,4.05-2.35,3.69-5.9-.33-3.15-1.99-7.57-4.6-6.98s-3.92,4.47-3.07,7.64Z" style="fill:#cd877b;"></path><path d="M183.43,179.84s1.21,2.06,2.3,2.18c1.09,.12,9.73-1.17,23.04-6.01,13.31-4.84,17.74-9.24,18.47-10.09s0-3.03,0-3.03l-2.9-.73s-5-12.22-18.84-11.98c0,0-1.13-.61-1.73-.61s-9.08,2.3-9.68,3.27-.61,1.82-.61,1.82c0,0-7.87,2.78-8.71,12.46-.85,9.68-.36,11.5-.36,11.5l-.97,1.21Z" style="fill:#FFC100;"></path><path d="M205.49,150.19s-3.2,6.84-3.13,13.12c0,0-.91-5.44,0-9.35,.91-3.91,1.4-4.37,1.4-4.37,.45-.02,1.07,.29,1.73,.61Z" style="opacity:.3;"></path><path d="M182.37,180.65s17.92-3.97,28.85-8.23c10.93-4.26,17.04-9.51,17.04-9.51,0,0,1.22,2.35,.34,3.05-.89,.69-10.41,8.49-24.49,12.36-14.08,3.87-18.62,4.93-19.34,4.63s-2.41-2.28-2.41-2.28Z" style="opacity:.3;"></path><path d="M193.47,154.67s-.56,4.12-.38,8.81c0,0-2.6-4.41,.38-8.81Z" style="opacity:.3;"></path></g><g><polygon points="311.84 154.75 316.19 151.32 356.61 205.46 352.59 208.63 311.84 154.75" style="fill:#263238;"></polygon><rect x="230.92" y="150.7" width="5.75" height="217.1" transform="translate(292.71 -84.84) rotate(51.76)" style="fill:#263238;"></rect><rect x="230.92" y="150.7" width="5.75" height="217.1" transform="translate(292.71 -84.84) rotate(51.76)" style="fill:#fff; opacity:.3;"></rect><polygon points="306.35 158.08 311.26 153.98 353.12 209.33 348.38 213.47 332.62 193.49 329.01 194.67 326.49 191.52 315.35 199.75 310.51 193.61 321.4 184.45 319.05 181.1 320.64 177.13 306.35 158.08" style="fill:#FFC100;"></polygon></g><path d="M248.21,254.4s17.77,21.22,22.81,19.63c5.04-1.59,27-44.34,27-44.34l-9.22-3.8-18.19,24.68-17.89-17.27-4.51,21.11Z" style="fill:#cd877b;"></path><path d="M223.44,424.07c.48-1.53,5.78-22.89,5.78-22.89,0,0,19.57,1.37,18.56,1.6-1.01,.23-10.81,26.21-10.81,26.21l-13.53-4.91Z" style="fill:#cd877b;"></path><g><path d="M223.73,422.38c-2.09,3.38-5.12,18.31-5.12,18.31l29.49,5.85c2.82-5.06,.83-9.28-2.51-10.45-1.44-.5-2.88-2.36-3.88-3.94,.03-.17-.14-8.83-1.18-9.45,0,0-.6-1.01-1.42-.28-.82,.73-1.94,3.43-1.94,3.43-3.48-6.62-8.14-6.75-13.43-3.47Z" style="fill:#263238;"></path><path d="M222.52,426.65c3.57-.57,7.06,.6,9.56,3.21,.44,.46,1.09-.28,.65-.74-2.67-2.78-6.48-4.07-10.29-3.46-.62,.1-.55,1.08,.07,.98h0Z" style="fill:#fff;"></path><path d="M248.44,444.33h0l-29.06-5.76c-.27-.05-.44-.31-.39-.58,.05-.27,.31-.44,.58-.39h0l29.06,5.76c.27,.05,.44,.31,.39,.58-.05,.27-.31,.44-.58,.39Z" style="fill:#fff;"></path></g><path d="M271.61,430.69c.46-1.47,5.54-21.94,5.54-21.94,0,0,18.76,1.31,17.79,1.53-.97,.22-10.36,25.12-10.36,25.12l-12.97-4.71Z" style="fill:#cd877b;"></path><path d="M220.61,416.42l13.8-65s33.59,.54,33.17,1.78c-.41,1.24-19.61,65.63-19.61,65.63l-27.36-2.41Z" style="fill:#263238;"></path><path d="M179.52,314.28s-7.78,35.68,30.26,38.89h70.04l-11.68,67.8,25.36,1.44s21.45-60.75,25.34-77.16-2.04-26.39-16.74-29.24c-14.7-2.85-90.17-1.74-90.17-1.74h-32.43Z" style="fill:#263238;"></path><g><path d="M174.43,227.41s-11.47,37.18-13.29,48c-1.98,11.76,6.1,17.98,12.31,17.36,5.8-.58,25.28-5.88,25.28-5.88l-24.29-59.48Z" style="fill:#cd877b;"></path><path d="M185.9,211.93s-3.78,.83-5.67,1.36c-3.94,1.1-6.8,5.17-8.51,9.25-4.19,9.96-10.89,32.97-10.89,32.97l18.87,6.5,12.38-21.99-6.17-28.1Z" style="fill:#FFC100;"></path><path d="M185.9,211.93s-5.39,.57-8.37,2.67c-2.27,1.59-4.16,4.01-5.81,7.94-4.19,9.96-10.89,32.97-10.89,32.97l18.87,6.5,12.38-21.99-6.17-28.1Z" style="fill:#fff; opacity:.5;"></path><path d="M233.35,212.94c-5.88-.63-27.83-4.08-52.12-.54l-1.8,89.18s-.73,5-2.88,16.79c24.69,10.6,53.21,4.6,69.73-4.31-.66-2.96-.05,2.29-.9-12.07-1.49-25.3-3.94-64.75-7.09-87.59-.09-.56-4.35-1.4-4.94-1.47Z" style="fill:#FFC100;"></path><path d="M231.73,213.88c-6.61,6.26-8.35,18.1,17.81,49.11l19.33-17.05c-5.81-7.31-11.49-12.37-18.71-23.17-13.04-13.14-18.42-8.89-18.42-8.89Z" style="fill:#FFC100;"></path><path d="M231.73,213.88c-6.61,6.26-8.35,18.1,17.81,49.11l19.33-17.05c-5.81-7.31-11.49-12.37-18.71-23.17-13.04-13.14-18.42-8.89-18.42-8.89Z" style="fill:#fff; opacity:.5;"></path></g><g><path d="M271.89,429.07c-2,3.24-4.91,17.55-4.91,17.55l28.27,5.6c2.7-4.85,.8-8.9-2.41-10.02-1.38-.48-2.76-2.26-3.72-3.77,.02-.17-.14-8.46-1.13-9.06,0,0-.57-.97-1.36-.27-.79,.7-1.86,3.28-1.86,3.28-3.33-6.35-7.8-6.47-12.87-3.32Z" style="fill:#263238;"></path><path d="M270.73,433.16c3.43-.55,6.77,.58,9.17,3.08,.42,.44,1.04-.27,.62-.71-2.56-2.67-6.21-3.9-9.86-3.31-.59,.09-.53,1.04,.07,.94h0Z" style="fill:#fff;"></path><path d="M295.58,450.11h0l-27.85-5.52c-.26-.05-.42-.3-.37-.55,.05-.25,.3-.42,.55-.37h0l27.85,5.52c.25,.05,.42,.3,.37,.55-.05,.25-.3,.42-.55,.37Z" style="fill:#fff;"></path></g><path d="M284.6,228.25s.18-9.15,1.7-12.94c1.03-2.59,2.91-5.33,3.89-6.67,.4-.54,.92-.97,1.52-1.26l3.18-1.53-1.35,8.29,7.69-5.36s3.97,1.05,3.16,4.65c0,0,3.48,1.11,2.3,6.22-1.18,5.1,2.9,5.59-2.78,10.07-5.68,4.48-8.34,7.41-8.34,7.41l-3.75,7.6-11.13-10.56,3.91-5.91Z" style="fill:#263238;"></path></g><g><rect x="124.83" y="346.32" width="269.67" height="10.2" style="fill:#FFC100;"></rect><rect x="326.15" y="346.32" width="68.36" height="10.2" style="opacity:.3;"></rect><g><polygon points="326.54 346.62 325.75 346.01 361.03 299.79 394.91 346.02 394.11 346.61 361.01 301.46 326.54 346.62" style="fill:#263238;"></polygon><path d="M366.91,299.39c0,3.63-2.95,6.58-6.58,6.58s-6.58-2.95-6.58-6.58,2.95-6.58,6.58-6.58,6.58,2.95,6.58,6.58Z" style="fill:#263238;"></path><polygon points="364.54 301.13 356.11 301.13 356.11 21.57 357.11 21.57 357.11 300.13 363.54 300.13 363.54 22.24 364.54 22.24 364.54 301.13" style="fill:#263238;"></polygon></g></g></g></g><g id="freepik--Bucket--inject-32"><g><g><polygon points="316.5 346.71 265.62 346.71 258.8 284.24 324.68 284.24 316.5 346.71" style="fill:#263238;"></polygon><polygon points="316.5 346.71 265.62 346.71 258.8 284.24 324.68 284.24 316.5 346.71" style="fill:#fff; opacity:.3;"></polygon></g><path d="M292.24,307.99c-4.86,0-9.72-.97-14.12-2.92-8.52-3.76-15.51-11.23-18.69-19.98l.94-.34c3.1,8.5,9.88,15.75,18.16,19.41,8.27,3.65,18.21,3.79,26.58,.35,7.88-3.24,15.56-11.45,19.11-20.45l.93,.37c-3.64,9.23-11.54,17.67-19.66,21.01-4.16,1.71-8.7,2.56-13.24,2.56Z" style="fill:#263238;"></path></g></g></svg>
