<svg xmlns="http://www.w3.org/2000/svg" viewBox="0 0 500 500"><g id="freepik--background-complete--inject-288"><path d="M38.53,354.32C89.7,344.55,142,339.58,194.12,341.05,246,346.6,296.53,360.9,347,373.48q50.44,13.14,100.49,27.77c-66.95-18.55-134.07-36.88-202.1-51.06-21.24-4.1-42.64-8.89-64.37-8.67a784.91,784.91,0,0,0-142.53,12.8Z" style="fill:#ebebeb"></path><path d="M41.31,331.83c51.37-1.07,103.62-1.85,155-.6,17.21,1.19,34.28,3.65,51.32,6.27,51,8.13,101.73,18.23,152.35,28.65q25.29,5.33,50.52,10.86-25.27-5.33-50.62-10.39C340.83,354.76,281.66,343,222,334.77c-8.53-1.13-17.09-2.1-25.66-2.69-51.39-1.43-103.61-.69-155-.25Z" style="fill:#ebebeb"></path><path d="M44.52,305.87c52.42,4.36,114.68,8.55,166.73,14,62.75,7.45,128.48,17.56,191.19,26.76l50.88,7.85c-80.41-11.47-175-25.94-254.95-35.17-47.16-4.38-106.47-9.05-153.85-13.42Z" style="fill:#ebebeb"></path><path d="M49,269.74c45.37,13.05,91.6,23.92,138,32.43,71.27,11.39,146,16.12,218,22.65Q430.75,327,456.46,329q-25.72-1.8-51.46-3.75c-68.54-5.72-137.26-10.45-205.39-20.12A1286.91,1286.91,0,0,1,49,269.74Z" style="fill:#ebebeb"></path><path d="M53.21,235.59c31,16,62.66,30.73,95.34,42.87,16.37,6,33.08,11.14,50.28,13.88,66.78,9.92,134.56,13,202,13.43,19.58-.17,39.27-.37,58.77-2.36-19.48,2.15-39.18,2.61-58.77,2.88-67.51-.27-135.37-2.86-202.16-13.13-51.57-9.69-99.16-33.86-145.49-57.57Z" style="fill:#ebebeb"></path><path d="M229.28,313.17a5.11,5.11,0,1,1-2.47-6.78A5.1,5.1,0,0,1,229.28,313.17Z" style="fill:#ebebeb"></path><rect x="231" y="287.83" width="3.9" height="25.66" transform="translate(148.7 -70.24) rotate(24.97)" style="fill:#ebebeb"></rect><path d="M247.39,313.41a5.1,5.1,0,1,1-2.47-6.78A5.1,5.1,0,0,1,247.39,313.41Z" style="fill:#ebebeb"></path><rect x="249.11" y="288.08" width="3.9" height="25.66" transform="translate(150.51 -77.86) rotate(24.97)" style="fill:#ebebeb"></rect><polygon points="258.23 290.15 235.15 291.32 236.6 288.21 259.68 287.04 258.23 290.15" style="fill:#ebebeb"></polygon><polygon points="255.5 296.01 232.42 297.18 233.87 294.07 256.95 292.9 255.5 296.01" style="fill:#ebebeb"></polygon><path d="M417.83,371.94a4.31,4.31,0,1,1-2.09-5.73A4.31,4.31,0,0,1,417.83,371.94Z" style="fill:#ebebeb"></path><rect x="419.29" y="350.52" width="3.3" height="21.7" transform="translate(191.9 -143.92) rotate(24.97)" style="fill:#ebebeb"></rect><path d="M433.15,372.15a4.32,4.32,0,1,1-2.09-5.73A4.32,4.32,0,0,1,433.15,372.15Z" style="fill:#ebebeb"></path><rect x="434.61" y="350.72" width="3.3" height="21.7" transform="translate(193.42 -150.37) rotate(24.97)" style="fill:#ebebeb"></rect><polygon points="442.31 352.48 422.8 353.47 424.02 350.84 443.54 349.85 442.31 352.48" style="fill:#ebebeb"></polygon><path d="M129.41,291.63a4.31,4.31,0,1,1-2.09-5.74A4.31,4.31,0,0,1,129.41,291.63Z" style="fill:#ebebeb"></path><rect x="130.87" y="270.2" width="3.3" height="21.7" transform="translate(131.04 -29.67) rotate(24.97)" style="fill:#ebebeb"></rect><path d="M144.73,291.83a4.31,4.31,0,1,1-2.09-5.73A4.31,4.31,0,0,1,144.73,291.83Z" style="fill:#ebebeb"></path><rect x="146.19" y="270.4" width="3.3" height="21.7" transform="translate(132.56 -36.12) rotate(24.97)" style="fill:#ebebeb"></rect><polygon points="153.9 272.16 134.38 273.15 135.61 270.52 155.12 269.53 153.9 272.16" style="fill:#ebebeb"></polygon><path d="M328,351.76a5.1,5.1,0,1,1-2.47-6.78A5.1,5.1,0,0,1,328,351.76Z" style="fill:#ebebeb"></path><rect x="329.72" y="326.43" width="3.9" height="25.66" transform="translate(174.22 -108.3) rotate(24.97)" style="fill:#ebebeb"></rect><rect x="348.36" y="326.88" width="3.9" height="7.42" transform="translate(172.31 -116.98) rotate(24.97)" style="fill:#ebebeb"></rect><polygon points="353.23 328.94 333.87 329.91 335.31 326.8 354.67 325.84 353.23 328.94" style="fill:#ebebeb"></polygon><polygon points="350.5 334.81 331.14 335.77 332.58 332.67 351.94 331.7 350.5 334.81" style="fill:#ebebeb"></polygon><path d="M388.92,307.39a3.2,3.2,0,1,1-1.75-4.18A3.2,3.2,0,0,1,388.92,307.39Z" style="fill:#ebebeb"></path><rect x="389.63" y="291.39" width="2.45" height="16.1" transform="translate(142.91 -125.95) rotate(22.31)" style="fill:#ebebeb"></rect><rect x="401.07" y="291.14" width="2.45" height="4.65" transform="translate(141.51 -130.74) rotate(22.31)" style="fill:#ebebeb"></rect><polygon points="404.07 292.35 391.96 293.52 392.78 291.53 404.89 290.36 404.07 292.35" style="fill:#ebebeb"></polygon><polygon points="402.53 296.1 390.42 297.27 391.24 295.28 403.35 294.11 402.53 296.1" style="fill:#ebebeb"></polygon><path d="M111.37,344.74a3.2,3.2,0,1,1-1.75-4.18A3.2,3.2,0,0,1,111.37,344.74Z" style="fill:#ebebeb"></path><rect x="112.08" y="328.74" width="2.45" height="16.1" transform="translate(136.31 -17.8) rotate(22.31)" style="fill:#ebebeb"></rect><rect x="123.52" y="328.49" width="2.45" height="4.65" transform="translate(134.91 -22.59) rotate(22.31)" style="fill:#ebebeb"></rect><polygon points="126.52 329.7 114.41 330.87 115.23 328.88 127.34 327.71 126.52 329.7" style="fill:#ebebeb"></polygon><polygon points="124.98 333.45 112.87 334.63 113.69 332.63 125.8 331.46 124.98 333.45" style="fill:#ebebeb"></polygon><path d="M249.68,352.43a3.2,3.2,0,1,1-1.74-4.18A3.19,3.19,0,0,1,249.68,352.43Z" style="fill:#ebebeb"></path><rect x="250.4" y="336.43" width="2.45" height="16.1" transform="matrix(0.93, 0.38, -0.38, 0.93, 149.57, -69.72)" style="fill:#ebebeb"></rect><rect x="261.83" y="336.18" width="2.45" height="4.65" transform="translate(148.19 -74.52) rotate(22.31)" style="fill:#ebebeb"></rect><polygon points="264.84 337.39 252.73 338.56 253.55 336.57 265.65 335.4 264.84 337.39" style="fill:#ebebeb"></polygon><polygon points="263.3 341.14 251.19 342.31 252.01 340.32 264.11 339.15 263.3 341.14" style="fill:#ebebeb"></polygon><path d="M92,306.76a6.08,6.08,0,0,1-4.39,3.17,10.89,10.89,0,0,1-5.58-.15,9.49,9.49,0,0,1-4.72-3.06,10.64,10.64,0,0,1-2.22-5.22,14.74,14.74,0,0,1,2.48-10.91,15,15,0,0,1,9.77-5.66,18.6,18.6,0,0,1,11.26,1.73,16.53,16.53,0,0,1,7.83,8.36,28.06,28.06,0,0,1,1.78,11.31,23.09,23.09,0,0,1-3.3,11A20.58,20.58,0,0,1,96.23,325a28.71,28.71,0,0,1-22.61.6,26.3,26.3,0,0,1-9.51-6.6,25.65,25.65,0,0,1-5.7-10.11,28.54,28.54,0,0,1-.81-11.55,35.74,35.74,0,0,1,3.39-11,75.4,75.4,0,0,1,5.73-9.78c4.21-6.21,8.87-12,12.64-18.29a53.19,53.19,0,0,0,4.74-9.79,20.25,20.25,0,0,0,1.1-10.33,9.09,9.09,0,0,0-2.13-4.39,5.64,5.64,0,0,0-4-1.93,4.85,4.85,0,0,0-3.87,2,9.05,9.05,0,0,0-1.61,4.61c-.24,3.42.48,7.16,1,10.78s1.34,7.28,2.09,10.92c3,14.54,6.46,29,9.57,43.57,1.53,7.28,3,14.58,4.25,21.93.6,3.67,1.16,7.35,1.52,11.07a37.18,37.18,0,0,1,.19,5.59,7.12,7.12,0,0,1-2.79,4.71A7,7,0,0,0,92,342.32a36.73,36.73,0,0,0-.39-5.53c-.45-3.69-1.1-7.34-1.81-11C88.39,318.51,86.72,311.26,85,304c-3.37-14.48-7-28.9-10.29-43.43-.81-3.64-1.59-7.28-2.27-11-.35-1.84-.64-3.7-.89-5.57a28.44,28.44,0,0,1-.27-5.8,11.22,11.22,0,0,1,2-5.78A7.13,7.13,0,0,1,79,229.55a8,8,0,0,1,5.77,2.64,11.51,11.51,0,0,1,2.74,5.5,22.54,22.54,0,0,1-1.12,11.61,55.88,55.88,0,0,1-4.9,10.29c-3.86,6.5-8.5,12.37-12.63,18.47S61,290.59,60.07,297.69a26.09,26.09,0,0,0,.68,10.56,23.14,23.14,0,0,0,5.11,9.18,24,24,0,0,0,8.64,6.05,26,26,0,0,0,10.43,1.91,27,27,0,0,0,10.37-2.34,18.39,18.39,0,0,0,7.92-6.76c3.85-6,4.09-14,1.71-20.66a14.9,14.9,0,0,0-7-7.69,17.52,17.52,0,0,0-10.42-1.78,13.11,13.11,0,0,0-11.77,15.25,10,10,0,0,0,2,5,9.13,9.13,0,0,0,4.42,3,10.64,10.64,0,0,0,5.43.32A6,6,0,0,0,92,306.76Z" style="fill:#ebebeb"></path><path d="M92,343.29a6.21,6.21,0,1,1-4.69-7.43A6.22,6.22,0,0,1,92,343.29Z" style="fill:#ebebeb"></path></g><g id="freepik--Floor--inject-288"><path d="M40.37,467.85c134.3-.61,285-.62,419.26,0-134.3.61-285,.61-419.26,0Z" style="fill:#263238"></path></g><g id="freepik--musical-notes--inject-288"><path d="M234.06,276.82a4.74,4.74,0,1,1-3.78-5.54A4.75,4.75,0,0,1,234.06,276.82Z" style="fill:#E7D99C"></path><rect x="232.7" y="252.79" width="3.62" height="23.85" transform="translate(53.58 -39.15) rotate(10.77)" style="fill:#E7D99C"></rect><path d="M250.43,272.91a4.74,4.74,0,1,1-3.77-5.54A4.74,4.74,0,0,1,250.43,272.91Z" style="fill:#E7D99C"></path><rect x="249.08" y="248.88" width="3.62" height="23.85" transform="translate(53.13 -42.27) rotate(10.77)" style="fill:#E7D99C"></rect><polygon points="254.89 249.48 234.37 255.8 234.96 252.66 255.49 246.35 254.89 249.48" style="fill:#E7D99C"></polygon><polygon points="253.77 255.38 233.25 261.7 233.84 258.57 254.37 252.25 253.77 255.38" style="fill:#E7D99C"></polygon><path d="M285.75,168.1a2.64,2.64,0,1,1-2.1-3.08A2.62,2.62,0,0,1,285.75,168.1Z" style="fill:#455a64"></path><rect x="285" y="154.72" width="2.02" height="13.28" transform="translate(35.17 -50.58) rotate(10.76)" style="fill:#455a64"></rect><path d="M294.87,165.93a2.64,2.64,0,1,1-2.1-3.09A2.65,2.65,0,0,1,294.87,165.93Z" style="fill:#455a64"></path><rect x="294.12" y="152.55" width="2.02" height="13.28" transform="translate(34.94 -52.33) rotate(10.77)" style="fill:#455a64"></rect><polygon points="297.35 152.88 285.93 156.4 286.26 154.65 297.68 151.14 297.35 152.88" style="fill:#455a64"></polygon><path d="M63,81.79a2.64,2.64,0,1,1-.78-3.65A2.65,2.65,0,0,1,63,81.79Z" style="fill:#455a64"></path><rect x="64.78" y="69.01" width="2.02" height="13.28" transform="matrix(0.84, 0.54, -0.54, 0.84, 51.71, -23.61)" style="fill:#455a64"></rect><path d="M72.27,83.22a2.64,2.64,0,1,1-.78-3.66A2.64,2.64,0,0,1,72.27,83.22Z" style="fill:#455a64"></path><rect x="74.04" y="70.43" width="2.02" height="13.28" transform="translate(53.97 -28.42) rotate(32.94)" style="fill:#455a64"></rect><polygon points="79.5 72.07 67.59 71.02 68.55 69.53 80.46 70.58 79.5 72.07" style="fill:#455a64"></polygon><path d="M167.8,120.73a3.57,3.57,0,1,1-2.84-4.17A3.58,3.58,0,0,1,167.8,120.73Z" style="fill:#E7D99C"></path><rect x="166.78" y="102.66" width="2.72" height="17.93" transform="translate(23.82 -29.45) rotate(10.77)" style="fill:#E7D99C"></rect><rect x="177.93" y="99.97" width="2.72" height="5.18" transform="translate(22.32 -31.69) rotate(10.77)" style="fill:#E7D99C"></rect><polygon points="180.98 100.95 168.03 104.92 168.48 102.57 181.43 98.59 180.98 100.95" style="fill:#E7D99C"></polygon><polygon points="180.14 105.39 167.19 109.36 167.64 107 180.59 103.03 180.14 105.39" style="fill:#E7D99C"></polygon><path d="M433.29,296.5a4.74,4.74,0,1,1-5.43-3.95A4.74,4.74,0,0,1,433.29,296.5Z" style="fill:#455a64"></path><rect x="427.82" y="273.02" width="3.62" height="23.85" transform="translate(-39.11 70.34) rotate(-8.95)" style="fill:#455a64"></rect><rect x="437.71" y="265.14" width="3.62" height="6.89" transform="translate(-36.45 71.68) rotate(-8.95)" style="fill:#455a64"></rect><polygon points="440.91 265.81 426.49 276.6 425.99 273.45 440.42 262.66 440.91 265.81" style="fill:#455a64"></polygon><polygon points="441.85 271.75 427.42 282.53 426.93 279.38 441.35 268.6 441.85 271.75" style="fill:#455a64"></polygon></g><g id="freepik--character-2--inject-288"><path d="M326.93,121.56c8.14,6.13,16.88,14.86,27.26,16.74,8.15,1.47,16.36-1.53,23.21-5.76C392.46,123.23,406,105,399.19,86.6c-2.74-7.37-13.34-15.56-21.63-12.13-4.25,1.77-7.32,5.23-10.75,8.16a18.59,18.59,0,0,1-15.46,4.65c-11.55-1.61-12.09-5.77-22-11.33-1.83-1-9-2.79-11.61-2.09a14.41,14.41,0,0,0-6.85,3.43,14.28,14.28,0,0,0-4.81,5c-2.4,4.42-1.3,11-1.12,15.8s1.68,8.07,5.56,11.09C316,113.4,321.47,117.44,326.93,121.56Z" style="fill:#263238"></path><path d="M330.18,125.31c-7.1-6.1-14.06-12.32-21.08-18.51,0,0,0-.11,0-.08,5.92,4.93,11.9,9.77,17.76,14.77s11.3,10.34,17.45,14.72c13.8,9.84,29.34-.65,36.8-13,.34-.57,1.2,0,.83.6-6.88,10.64-19,20.68-32.53,16.05C342.06,137.33,336,130.29,330.18,125.31Z" style="fill:#263238"></path><path d="M323,75.11c-.14-.1,0-.32.17-.22,7.93,4.91,16.71,11.39,26.41,11.59a23.64,23.64,0,0,0,13.46-3.87c3.15-2.08,5.35-5.07,8-7.68,10.4-10.22,26.42.58,26.77,13.42,0,.27-.46.29-.48,0-.67-9.34-8.06-17.32-17.85-16.79-7.86.42-11.42,9.13-17.89,12.62C348.2,91.42,334,83,323,75.11Z" style="fill:#263238"></path><path d="M400.86,374.92,365.45,404.1S290,320.87,286.23,295.76c-2.58-17.12,24.9-114.44,24.9-114.44l42.69.41S335.09,279.55,336,283.4C337.05,287.54,400.86,374.92,400.86,374.92Z" style="fill:#d3766a"></path><path d="M400.86,374.92,365.45,404.1s-.78-.86-2.18-2.44c-6.76-7.55-27.93-31.52-46.39-55.45-15.5-20.09-29.1-40.15-30.65-50.45-2.58-17.12,24.9-114.44,24.9-114.44l5.75.06,36.94.35S335.09,279.55,336,283.4c.53,2.16,18.11,26.91,34.83,50.13C386.23,354.88,400.86,374.92,400.86,374.92Z" style="fill:#d3766a"></path><path d="M373.23,467.39c1.18,0,19.23-.24,27.9,0,5.48.15,27.33-65.7,27.45-69.11s-14.14-7.48-14.85-8.44C402.37,374.58,385.37,356,385.37,356l-36,28.32,29.93,36.91s5.16,23.41,2.36,27.67c-1.46,2.21-5.59,7.45-7.61,10.23S369.84,467.3,373.23,467.39Z" style="fill:#d3766a"></path><path d="M428.58,398.28c-.12,3.41-22,69.26-27.45,69.11-8.67-.24-26.72,0-27.9,0-3.39-.09-1.27-5.43.81-8.3s6.15-8,7.61-10.23c-3.47,7.13.08,20.54,16.92-11.16,16-30,15.16-47.86,15.16-47.86C414.44,390.8,428.69,394.9,428.58,398.28Z" style="fill:#263238"></path><path d="M381.65,448.86s4.29-5,14.15-6.14" style="fill:#263238"></path><path d="M382.42,445.14s2.62-.85,8.33,5.66" style="fill:#263238"></path><path d="M370.86,333.53l-7.59,68.13c-6.76-7.55-27.93-31.52-46.39-55.45V181.38l36.94.35S335.09,279.55,336,283.4C336.56,285.56,354.14,310.31,370.86,333.53Z" style="opacity:0.1"></path><path d="M285.61,467.69c1.11.39,22.58-.07,38.95-.07,5.48,0,40.17-23.24,42.08-26.07s-4.42-14.73-4.43-15.93c-.17-19.43.05-42.66.05-42.66l-44.62-.62-2.08,46.44s-4.33,17.4-8.8,19.85c-7.53,4.13-17,7.67-18.54,8.87C285.42,459.68,283.12,466.83,285.61,467.69Z" style="fill:#d3766a"></path><path d="M366.64,441.55c-1.91,2.83-36.6,26.07-42.08,26.07-16.37,0-37.84.46-38.95.07-2.49-.86-.19-8,2.61-10.19,1.27-1,7.82-3.52,14.28-6.68-4.53,2.69-11.43,8.16,9.17,3.42s50.54-28.62,50.54-28.62C362.22,426.82,368.54,438.76,366.64,441.55Z" style="fill:#263238"></path><path d="M307.6,448.06c.19-.05.29-.1.3-.16Z" style="fill:#E7D99C"></path><path d="M302.24,450.92s6.25-2.13,15.49,1.5" style="fill:#263238"></path><path d="M306.51,448.64s2.52.39,3.69,5.94" style="fill:#263238"></path><path d="M317.66,181.84s1.74,26.39,9,38.75c0,0,3.27.43,4.16,1,0,0-7.81,77.24-10.39,103.38-2.49,25.22-4.16,88.54-4.16,88.54l44.55,1.34s3.82-85.06,4.24-91.87c.66-11,13.89-101.87,13.89-107.12,0-10.95-8-34-8-34Z" style="fill:#d3766a"></path><path d="M311.05,181.31s-10,3.68-17.46,2.42-18.29-8.49-30.26-8.78c0,0,7.64,9.19,7,20s-2.49,41.6,19.45,49.4,30.43,1.31,41.4,2.31,20.62,13.8,41.74,5.82,46.55-40.24,46.55-40.24-23.68-19.59-48.45-30.4Z" style="fill:#E7D99C"></path><path d="M356.37,252.9a3.54,3.54,0,0,0-1.87-.1c-.55.1-1.14.18-1.7.32a15,15,0,0,0,1.7.34,3.6,3.6,0,0,1,1.42.45,2.68,2.68,0,0,1,1,1.05c.5,0,1,.08,1.53.1A3.47,3.47,0,0,0,356.37,252.9ZM309.1,225.32a3.55,3.55,0,0,1-1.43-.48,2.66,2.66,0,0,1-1.21-2.3,3.49,3.49,0,0,0-2.26-3.2,3.61,3.61,0,0,0-1.88-.14c-.6.14-1.15.2-1.71.35a13.27,13.27,0,0,0,1.71.34,2.91,2.91,0,0,1,1.42.46,2.62,2.62,0,0,1,1.33,2.22,3.43,3.43,0,0,0,2.12,3.23,3.27,3.27,0,0,0,1.91.19c.56-.11,1.11-.19,1.7-.36C310.21,225.5,309.66,225.43,309.1,225.32Zm28.72-41.91a3.4,3.4,0,0,1-1.4-.45,2.63,2.63,0,0,1-1.09-1.44h-1.44a3.44,3.44,0,0,0,2.05,2.42,3.24,3.24,0,0,0,1.88.18c.59-.11,1.15-.18,1.74-.35C339,183.62,338.41,183.55,337.82,183.41Zm-59.05-1.48a3.41,3.41,0,0,1-1.4-.46,2.61,2.61,0,0,1-1.21-2.29,3.56,3.56,0,0,0-.59-1.86c-1.47-.49-3-.93-4.51-1.29l-.78.15a13.45,13.45,0,0,0,1.74.36,3.25,3.25,0,0,1,1.43.42,2.65,2.65,0,0,1,1.28,2.22,3.56,3.56,0,0,0,2.15,3.27,3.35,3.35,0,0,0,1.89.17,15.1,15.1,0,0,0,1.73-.34C279.91,182.13,279.36,182.06,278.77,181.93ZM399.83,225.3a3.41,3.41,0,0,1-1.4-.46,2.61,2.61,0,0,1-1.21-2.29,3.54,3.54,0,0,0-2.26-3.2,3.19,3.19,0,0,0-1.89-.14c-.59.14-1.14.21-1.73.34a13.3,13.3,0,0,0,1.73.36,3.25,3.25,0,0,1,1.43.42,2.64,2.64,0,0,1,1.29,2.22,3.56,3.56,0,0,0,2.15,3.27,3.35,3.35,0,0,0,1.89.17,15.1,15.1,0,0,0,1.73-.34C401,225.5,400.42,225.43,399.83,225.3ZM371.7,182.15a3.27,3.27,0,0,1-.64.28,2.74,2.74,0,0,1-2.44-.61l-5,0a2.94,2.94,0,0,0-.31.41c-.32.49-.67.94-1,1.46.52-.32,1-.66,1.46-1a3.41,3.41,0,0,1,1.32-.66,2.79,2.79,0,0,1,2.51.76,3.54,3.54,0,0,0,3.86.67,3.26,3.26,0,0,0,1.13-.89Zm-64,7.65a13.11,13.11,0,0,0-.34-1.7c-.13.55-.21,1.11-.35,1.7a3.39,3.39,0,0,1-.42,1.43,2.6,2.6,0,0,1-2.22,1.28,3.58,3.58,0,0,0-3.27,2.16,3.5,3.5,0,0,0-.17,1.88,15.26,15.26,0,0,0,.34,1.74,13.4,13.4,0,0,0,.35-1.74,2.93,2.93,0,0,1,.49-1.4,2.6,2.6,0,0,1,2.29-1.21,3.55,3.55,0,0,0,3.2-2.26A3.29,3.29,0,0,0,307.73,189.8Zm59.66,15.5a13.11,13.11,0,0,0-.34-1.7c-.13.55-.21,1.11-.35,1.7a3.39,3.39,0,0,1-.42,1.43,2.56,2.56,0,0,1-2.22,1.28,3.4,3.4,0,0,0-3.44,4,15.26,15.26,0,0,0,.34,1.74,13.4,13.4,0,0,0,.35-1.74,3,3,0,0,1,.49-1.39,2.59,2.59,0,0,1,2.29-1.22,3.54,3.54,0,0,0,3.2-2.26A3.29,3.29,0,0,0,367.39,205.3Zm-23.13,25.61a15,15,0,0,0-.34-1.7c-.14.55-.22,1.11-.36,1.7a3.25,3.25,0,0,1-.42,1.43,2.57,2.57,0,0,1-2.22,1.28,3.4,3.4,0,0,0-3.44,4,15.26,15.26,0,0,0,.34,1.74,13.4,13.4,0,0,0,.35-1.74,3,3,0,0,1,.49-1.39,2.59,2.59,0,0,1,2.29-1.22,3.54,3.54,0,0,0,3.2-2.26A3.39,3.39,0,0,0,344.26,230.91Zm-59.81,1.3c-.14-.59-.21-1.15-.35-1.71a13.61,13.61,0,0,0-.34,1.71,3,3,0,0,1-.46,1.43,2.54,2.54,0,0,1-2.22,1.28,3.66,3.66,0,0,0-2.72,1.27c.25.32.52.64.8.95a2.52,2.52,0,0,1,1.95-.79,3.48,3.48,0,0,0,3.2-2.26A3.61,3.61,0,0,0,284.45,232.21Zm-6.86-27a2.7,2.7,0,0,1-1.33.65,2.63,2.63,0,0,1-2.5-.73,3.43,3.43,0,0,0-3.79-.71c0,.38,0,.77,0,1.16a1.59,1.59,0,0,1,.33-.1,2.62,2.62,0,0,1,2.48.66,3.38,3.38,0,0,0,5.28-.41c.31-.49.7-.94,1-1.47C278.53,204.51,278.07,204.86,277.59,205.18Zm61.88,1.56a3.27,3.27,0,0,1-1.36.65,2.71,2.71,0,0,1-2.47-.76,3.44,3.44,0,0,0-3.87-.67,3.64,3.64,0,0,0-1.42,1.26c-.31.46-.65.9-1,1.42a13.59,13.59,0,0,0,1.46-1,4.64,4.64,0,0,1,1.32-.71,2.74,2.74,0,0,1,2.51.67,3.52,3.52,0,0,0,3.79.8,3.44,3.44,0,0,0,1.49-1.22c.31-.48.66-.94.94-1.46A13.88,13.88,0,0,0,339.47,206.74Zm60.79-8.53a3.53,3.53,0,0,1-.84.31,2.71,2.71,0,0,1-2.46-.76,3.42,3.42,0,0,0-3.87-.67,3.56,3.56,0,0,0-1.42,1.26c-.32.45-.66.89-1,1.41a13.59,13.59,0,0,0,1.46-1,4.36,4.36,0,0,1,1.32-.7,2.67,2.67,0,0,1,2.5.67,3.52,3.52,0,0,0,3.79.79,3.2,3.2,0,0,0,1.22-.87C400.75,198.53,400.51,198.36,400.26,198.21Zm-22.72,40.62a3.41,3.41,0,0,1-1.32.66,2.76,2.76,0,0,1-2.51-.76,3.46,3.46,0,0,0-3.82-.66,3.1,3.1,0,0,0-1.43,1.25,15.5,15.5,0,0,0-1,1.46c.52-.32,1-.66,1.46-1a3.32,3.32,0,0,1,1.33-.73,2.57,2.57,0,0,1,2.46.66,3.56,3.56,0,0,0,3.83.79,3.4,3.4,0,0,0,1.46-1.21c.32-.49.7-.94,1-1.47C378.48,238.17,378,238.52,377.54,238.83Zm-59.92,7.84a3.15,3.15,0,0,1-1.32.66,2.73,2.73,0,0,1-2.5-.76,3.5,3.5,0,0,0-3.83-.66,3.27,3.27,0,0,0-1.43,1.25c-.24.35-.49.68-.72,1h.38l.83-.56a3.26,3.26,0,0,1,1.33-.73,2.62,2.62,0,0,1,2.46.66,3.21,3.21,0,0,0,.71.55c1.44-.09,2.79-.23,4.09-.4a3.63,3.63,0,0,0,.49-.57c.32-.49.69-.94,1-1.46C318.56,246,318.11,246.37,317.62,246.67Z" style="fill:#fff"></path><g style="opacity:0.1"><path d="M313.85,202.92c3,1.62,11.2,10.78,12.11,13.47s1.83,9.52,1.6,11"></path><path d="M315.91,216.45a44.58,44.58,0,0,1,4.3,3.42c.41.62,2.47,4.12,2.47,4.12"></path></g><path d="M318.51,136.17c-6.58,3.36-35,15-46.8,15.21-17.5.36-35.76-2.25-44-6.06-3.58-1.65,8.28-27.6,12.32-26.41,8.67,2.54,28.35,5.58,31.5,5.61s28.47-.45,41.9-2.91C331,118.4,332.15,129.2,318.51,136.17Z" style="fill:#d3766a"></path><path d="M216,130.9c1,1.68.11,2.21-3.11.95s-14.92-9-17.27-4.69,14.3,15,19.83,16.67,15.07,2.5,15.07,2.5C227.66,143.6,221.44,136.33,216,130.9Z" style="fill:#d3766a"></path><path d="M248.17,123.45c-8.24-7.4-18-17.1-30.29-19.58a6.2,6.2,0,0,0-4,.44c-5.47-1.2-7.68,1-7.68,1-5.44.43-7.39,3-7.39,3s-6.43-1.34-7.89,2.41c-1.65,4.21,7.71,5.27,12.5,9,11,8.55,24.17,23.78,27.08,26.57Z" style="fill:#d3766a"></path><path d="M221.19,120.65a88.56,88.56,0,0,0-10-7,90.53,90.53,0,0,0-12.31-5.22.11.11,0,0,1,.06-.21,47.32,47.32,0,0,1,22.39,12.23C221.45,120.64,221.36,120.77,221.19,120.65Z" style="fill:#263238"></path><path d="M227.32,114.78c-3.32-2.21-9.18-6.06-21.18-9.33,0,0,0-.08,0-.07a42.46,42.46,0,0,1,21.28,9.24C227.62,114.77,227.54,114.92,227.32,114.78Z" style="fill:#263238"></path><path d="M230.55,111.56c-5.79-3.54-9.89-5-16.67-7.21,0,0,0-.08,0-.07,8,1.65,10.68,3.15,16.81,7.1C230.91,111.51,230.78,111.7,230.55,111.56Z" style="fill:#263238"></path><path d="M311.13,181.32l-.61-12.94s-7.37-5.71-4.82-14.67c1.3-4.53,6.26-26.86,12.65-33.22,6-6,13.15-4.92,17.17-1.36,10.93,9.7,24.54,30.1,35.48,62.71Z" style="fill:#E7D99C"></path><path d="M313.74,163.46a2.71,2.71,0,0,1-1.32.66,2.58,2.58,0,0,1-2.47-.76,3.57,3.57,0,0,0-3.71-.73c.16.37.33.72.51,1.06a2.58,2.58,0,0,1,2.22.68,3.41,3.41,0,0,0,5.29-.42c.32-.49.66-.94.94-1.46C314.68,162.81,314.23,163.15,313.74,163.46Zm28.09-37.83a2.82,2.82,0,0,0-.81.25,3.36,3.36,0,0,0-1.43,1.24c-.32.49-.69.95-1,1.47.53-.32,1-.66,1.47-1a2.88,2.88,0,0,1,1.31-.69,2.75,2.75,0,0,1,1.56,0C342.58,126.51,342.2,126.06,341.83,125.63Zm15.58,31.67c-.13-.56-.2-1.11-.35-1.7a16,16,0,0,0-.34,1.7,3.45,3.45,0,0,1-.45,1.46,2.61,2.61,0,0,1-2.23,1.3,3.44,3.44,0,0,0-3.23,2.15,2.81,2.81,0,0,0-.17,1.88c.1.59.17,1.14.3,1.7a13.49,13.49,0,0,0,.36-1.7,3.28,3.28,0,0,1,.48-1.4,2.59,2.59,0,0,1,2.3-1.21,3.55,3.55,0,0,0,3.2-2.26A4.11,4.11,0,0,0,357.41,157.3ZM315,128.8c-.12-.6-.19-1.16-.32-1.72a15.39,15.39,0,0,0-.35,1.72,3.5,3.5,0,0,1-.45,1.42,2.69,2.69,0,0,1-1.54,1.2c-.19.5-.38,1-.56,1.51A3.41,3.41,0,0,0,315,128.8Zm53.56,53a3.52,3.52,0,0,0-3.79-.8,3.14,3.14,0,0,0-1.17.82l5,0Zm-33.34-1.09a3.52,3.52,0,0,0-2.26-3.2,3.08,3.08,0,0,0-1.88-.14c-.59.14-1.15.2-1.74.34a13.4,13.4,0,0,0,1.74.35,3.39,3.39,0,0,1,1.43.42,2.67,2.67,0,0,1,1.28,2.23,3.48,3.48,0,0,0,.11.85h1.45A2.25,2.25,0,0,1,335.21,180.67Zm-5.35-34.11a3.29,3.29,0,0,1-1.4-.49,2.59,2.59,0,0,1-1.21-2.3,3.58,3.58,0,0,0-2.26-3.2,3.5,3.5,0,0,0-1.88-.1,15.31,15.31,0,0,0-1.74.35c.59.13,1.15.2,1.74.31a3.54,3.54,0,0,1,1.43.45,2.68,2.68,0,0,1,1.28,2.23,3.53,3.53,0,0,0,2.15,3.24,3.37,3.37,0,0,0,1.89.2c.59-.13,1.14-.2,1.7-.35A13.46,13.46,0,0,0,329.86,146.56Z" style="fill:#fff"></path><path d="M320.31,163.93a44.41,44.41,0,0,1,7.8.41c1.29.21,2.57.48,3.85.79.64.15,1.28.28,1.92.4a6.91,6.91,0,0,0,2,.17c.06,0,.07.1,0,.11A11.92,11.92,0,0,1,334,166a11.66,11.66,0,0,1-1.86-.15c-1.31-.19-2.61-.46-3.92-.67-2.65-.42-5.29-.84-7.94-1C320.19,164.18,320.19,163.93,320.31,163.93Z" style="fill:#263238"></path><path d="M314.41,167.59a48.09,48.09,0,0,1,6.27-1.29,31.29,31.29,0,0,1,3.2-.23h1.53c.57,0,1.14.1,1.7.1.06,0,.08.11,0,.11-.53,0-1.06.15-1.58.21l-1.59.18c-1.06.12-2.12.26-3.18.37-2.12.22-4.23.47-6.34.78C314.33,167.82,314.31,167.62,314.41,167.59Z" style="fill:#263238"></path><path d="M330.14,122.2c-.23,5.41,4.89,11.56,7.33,14.47,2.69,3.2,15.34,10,16.41,8.56,1.5-2-10.34-18.7-14.91-21.72C332.45,119.2,330.14,122.2,330.14,122.2Z" style="fill:#d3766a"></path><path d="M341.29,131.5c7.12,2,38.68,9.49,50.26,7.39,17.23-3.12,33.23-11.06,40.52-16.41,3.18-2.34-13.59-25.42-17.31-23.45-8,4.21-25.3,12.85-28.39,13.51s-29.36,3.44-43,3.7C325.5,116.57,326.54,127.38,341.29,131.5Z" style="fill:#d3766a"></path><path d="M438,103.94c-.3,1.93.7,2.1,3.25-.25S451.87,89.86,455.63,93s-7.84,19.17-12.37,22.76-13.13,7.82-13.13,7.82C431.77,120,434.91,111,438,103.94Z" style="fill:#d3766a"></path><path d="M405.32,108.76c5-9.89,10.55-22.51,21.05-29.28a6.17,6.17,0,0,1,3.91-1.06c4.65-3.12,7.51-1.86,7.51-1.86,5.22-1.58,8,.11,8,.11s5.5-3.6,8.23-.64c3.07,3.32-5.26,7.73-8.35,13-7.09,12-13.82,31-15.52,34.62Z" style="fill:#d3766a"></path><path d="M429.41,96.3a88.12,88.12,0,0,1,6.8-10.12,88.76,88.76,0,0,1,9.55-9.35.11.11,0,0,0-.13-.17,47.25,47.25,0,0,0-16.38,19.55C429.17,96.39,429.3,96.48,429.41,96.3Z" style="fill:#263238"></path><path d="M421.56,93.08c2.29-3.28,6.34-9,16.31-16.41,0,0,0-.09,0-.07A42.38,42.38,0,0,0,421.41,93C421.28,93.18,421.41,93.29,421.56,93.08Z" style="fill:#263238"></path><path d="M417.38,91.26c4.1-5.41,7.37-8.31,12.89-12.8,0,0,0-.09,0-.06-6.82,4.45-8.79,6.83-13.06,12.75C417,91.35,417.22,91.47,417.38,91.26Z" style="fill:#263238"></path><path d="M347.53,133.09a29.5,29.5,0,0,1-8.35-1.82,20.09,20.09,0,0,1,8.35,1.82Z" style="fill:#263238"></path><path d="M340.13,132.6c1.43,0,2.82-.22,4.24-.26a8.59,8.59,0,0,1-4.24.26Z" style="fill:#263238"></path><path d="M329.76,118.77c0,1.21-7.22,8-10.79,8.69-2,.41-1.68-5.56-1.68-5.56l-4.81-9.71,10.89-11.33S329.75,118.26,329.76,118.77Z" style="fill:#d3766a"></path><path d="M325.72,107.37a20.68,20.68,0,0,1-8.7,14l-4.54-9.16,10.88-11.34S324.43,103.8,325.72,107.37Z" style="fill:#263238"></path><path d="M298.81,94c-3.39,17.41,6.65,21.41,10.41,22.14,3.41.66,15.1,2.48,20.28-14.49s-1.84-24.06-9.56-26S302.21,76.61,298.81,94Z" style="fill:#d3766a"></path><path d="M303,91.31c.42,0,.81,0,1.22-.07a2,2,0,0,0,1.24-.3.62.62,0,0,0,.12-.76,1.55,1.55,0,0,0-1.47-.6,2.28,2.28,0,0,0-1.55.58A.68.68,0,0,0,303,91.31Z" style="fill:#263238"></path><path d="M314.59,93.22a9.4,9.4,0,0,1-1.15-.44,2,2,0,0,1-1.08-.66.64.64,0,0,1,.12-.77,1.59,1.59,0,0,1,1.58-.12,2.3,2.3,0,0,1,1.3,1A.67.67,0,0,1,314.59,93.22Z" style="fill:#263238"></path><path d="M311.38,97.26c0-.05.09.07.07.12-.25,1.18-.34,2.58.66,3.17,0,0,0,.07,0,.06C310.81,100.19,311,98.33,311.38,97.26Z" style="fill:#263238"></path><path d="M312.67,96.21c1.94.2,1.39,4.06-.4,3.87S311,96,312.67,96.21Z" style="fill:#263238"></path><path d="M313.4,96.52c.31.26.58.7,1,.79s.88-.24,1.24-.58c0,0,.07,0,.06,0-.09.74-.48,1.46-1.29,1.46s-1.17-.73-1.25-1.5C313.13,96.6,313.28,96.41,313.4,96.52Z" style="fill:#263238"></path><path d="M304.58,96c0-.05-.11,0-.11.09-.12,1.21-.46,2.56-1.6,2.82,0,0,0,.07,0,.06C304.22,99,304.65,97.2,304.58,96Z" style="fill:#263238"></path><path d="M303.67,94.65c-1.9-.41-2.57,3.44-.8,3.81S305.27,95,303.67,94.65Z" style="fill:#263238"></path><path d="M302.83,94.76c-.34.15-.71.47-1.07.43s-.67-.51-.87-1c0,0-.05,0-.06,0-.15.73,0,1.54.64,1.8s1.2-.3,1.51-1C303,94.92,303,94.7,302.83,94.76Z" style="fill:#263238"></path><path d="M309.93,107.08c-.3.27-.61.64-1.05.66a3.25,3.25,0,0,1-1.28-.37,0,0,0,0,0-.06.06,1.64,1.64,0,0,0,1.5.73,1.29,1.29,0,0,0,1-1C310.07,107.07,310,107,309.93,107.08Z" style="fill:#263238"></path><path d="M305.37,102.2s-.44,1.77-.53,2.62c0,.08.19.14.48.18,0,0,0,0,0,0a4.06,4.06,0,0,0,4.07-1.09.09.09,0,0,0-.11-.13,6.11,6.11,0,0,1-3.79.66c0-.24.85-3,.72-3a7.45,7.45,0,0,0-2,.24c.81-3.71,2.2-7.26,3-11,0-.13-.17-.19-.22-.08a61.79,61.79,0,0,0-3.67,11.68C303.2,102.76,305,102.31,305.37,102.2Z" style="fill:#263238"></path><path d="M305.84,104.9a4.35,4.35,0,0,0,1.55,1.59,2,2,0,0,0,1.18.24c.89-.1,1-.89,1-1.58a4.67,4.67,0,0,0-.24-1.09A5.67,5.67,0,0,1,305.84,104.9Z" style="fill:#263238"></path><path d="M307.39,106.49a2,2,0,0,0,1.18.24c.89-.1,1-.89,1-1.58A2,2,0,0,0,307.39,106.49Z" style="fill:#ff9bbc"></path><path d="M312.35,78.19a8,8,0,0,0-.39,4.62c1.37,4.21,6.26,3.79,7.67,5.57s.4,4.65,1.59,6.3c1.64,2.28,4.34,1.83,4.47,3.24s.47,5.89,2.13,6.68,13.46-27.18-9.37-29.24c0,0-2.95-1.69-8.11.12-5.69,2-9.17,10.52-9.17,10.52s.13-.11,1-.69c1.23-.83,1.77-1.67,2.66-2.2,1.39-.82,2-.36,3.47-1.15A15.09,15.09,0,0,0,312.35,78.19Z" style="fill:#263238"></path><path d="M312.86,77a16,16,0,0,0-1.12,3.41,6.51,6.51,0,0,0,0,3.45,4.75,4.75,0,0,0,2.34,2.38c1,.54,2.2.81,3.3,1.43A3.55,3.55,0,0,1,318.79,89a5,5,0,0,1,.44,1.84,6.33,6.33,0,0,0,.84,3.32A4,4,0,0,0,323,95.84c1.14.15,2.45,0,3.5.64-1.1-.56-2.32-.3-3.53-.37a4.25,4.25,0,0,1-3.2-1.7,6.44,6.44,0,0,1-1-3.53,4.44,4.44,0,0,0-.4-1.63,3,3,0,0,0-1.19-1.12c-1-.58-2.17-.87-3.25-1.46a6.29,6.29,0,0,1-1.51-1.1,3.77,3.77,0,0,1-1-1.6,6.78,6.78,0,0,1,.11-3.66A15.81,15.81,0,0,1,312.86,77Z" style="fill:#263238"></path><path d="M312.29,78a12.8,12.8,0,0,1-1.51,3,5.87,5.87,0,0,1-2.61,2.21,8.46,8.46,0,0,1-1.65.41,2.71,2.71,0,0,0-1.34.67A8.76,8.76,0,0,1,304,85.46a3.71,3.71,0,0,1-1.56.66,4.2,4.2,0,0,0,1.38-.87,8.36,8.36,0,0,0,1-1.29,2.88,2.88,0,0,1,1.54-.9,8.56,8.56,0,0,0,1.57-.41,6.22,6.22,0,0,0,2.45-2A23.45,23.45,0,0,0,312.29,78Z" style="fill:#263238"></path><path d="M325.92,102.2s4.7-4.86,7-3.1-1.87,9.23-5,9.84a3,3,0,0,1-3.72-2.22Z" style="fill:#d3766a"></path><path d="M331.64,101.21a0,0,0,0,1,0,.08c-2.18.5-3.56,2.22-4.62,4.07a1.66,1.66,0,0,1,2.52-.06s0,.12-.08.1a1.84,1.84,0,0,0-2.1.32,8.22,8.22,0,0,0-1.22,1.47c-.13.16-.44,0-.34-.19a.08.08,0,0,0,0,0C326.2,104.35,328.8,101,331.64,101.21Z" style="fill:#263238"></path><path d="M328.64,84.29c.38,1,.71,2,1,3,.14.52.27,1,.39,1.58a1.35,1.35,0,0,1,0,.84l0,0h0a.16.16,0,0,1,0,.07h0s0,0,0,0a.24.24,0,0,1-.09.08l0,0-.14,0h-.22a1,1,0,0,1-.29,0,7.22,7.22,0,0,1-1.3-.73l-.26-.16a17.55,17.55,0,0,1-3.69-2.62,1.91,1.91,0,0,1-.7-1,.69.69,0,0,1,0-.32v0a.54.54,0,0,1,.32-.34c.11,0,.29,0,.39-.12l0,0,0,0a.92.92,0,0,0,.11-.46,1.61,1.61,0,0,1,.08-.48,1.47,1.47,0,0,1,.41-.6h0l.12-.09a1.14,1.14,0,0,1,.9-.15,3.31,3.31,0,0,1,.41.14l.06,0,.14,0A1.55,1.55,0,0,0,327,83l.24,0h0C328,83,328.39,83.65,328.64,84.29Z" style="fill:#E7D99C"></path><path d="M329.56,90.08h-.09c-.39-.35-.79-.7-1.2-1a21.32,21.32,0,0,0-1.87-1.28,17.06,17.06,0,0,1-3.15-2.53v0a20.54,20.54,0,0,0,3.37,2.64A21.7,21.7,0,0,1,329.56,90.08Z" style="fill:#fff"></path><path d="M327.27,83a27.92,27.92,0,0,1,2.79,6.78l0,0a37.09,37.09,0,0,0-2.8-6.81Z" style="fill:#fff"></path><path d="M328.08,86.38c.64,1.16,1.3,2.31,1.92,3.48,0,0,0,0,0,0-.66-1.15-1.29-2.32-1.93-3.49s-1.24-2.28-2-3.36l.06,0A35.53,35.53,0,0,1,328.08,86.38Z" style="fill:#fff"></path><path d="M329.69,90.06h-.06c-.9-.94-1.82-1.88-2.78-2.77s-2-1.64-2.85-2.58l0,0c.91,1,2,1.73,3,2.63S328.82,89.12,329.69,90.06Z" style="fill:#fff"></path><path d="M329.87,90l0,0c-.27-.37-.53-.75-.79-1.13-.48-.7-1-1.38-1.55-2a36.34,36.34,0,0,1-2.87-3.68h0a45.43,45.43,0,0,0,2.87,3.61,25.46,25.46,0,0,1,1.55,2C329.33,89.2,329.59,89.59,329.87,90Z" style="fill:#fff"></path><path d="M334.5,84.64a.77.77,0,0,1,.21.54.28.28,0,0,1,0,.09,1.87,1.87,0,0,1-.47,1,18.32,18.32,0,0,1-1.93,1.91,6.34,6.34,0,0,1-1.94,1.39l-.12,0h-.05a.27.27,0,0,1-.2,0h0l-.08,0,0,0a1.07,1.07,0,0,1-.22-.57,3.73,3.73,0,0,1-.14-1,23,23,0,0,1,.12-2.87,3.93,3.93,0,0,1,.53-2,.61.61,0,0,1,.47-.28h.08c.32,0,.68.19,1,.2h.21a4.29,4.29,0,0,1,1.34,0h0a.91.91,0,0,1,.26.13c.29.21.21.46.22.77s.37.46.62.65l.06,0Z" style="fill:#E7D99C"></path><path d="M330.69,82.77a11.11,11.11,0,0,0-.54,2.51c-.16,1.41-.22,2.83-.28,4.25l0,0c0-1.45.1-2.91.28-4.35a11,11,0,0,1,.48-2.39Z" style="fill:#fff"></path><path d="M334.71,85.18a.28.28,0,0,1,0,.09A17.93,17.93,0,0,1,333.24,87a20.26,20.26,0,0,1-3,2.63h-.05a20.11,20.11,0,0,0,3-2.67A16.51,16.51,0,0,0,334.71,85.18Z" style="fill:#fff"></path><path d="M333.28,83c-.46.82-1,1.58-1.45,2.41-.69,1.36-1.3,2.77-1.87,4.19h0a40.09,40.09,0,0,1,1.8-4.08c.44-.87,1-1.67,1.51-2.52Z" style="fill:#fff"></path><path d="M334.44,84.59c-1.22,1.65-2.84,3-4.11,4.64h0c.78-1,1.71-1.94,2.59-2.89a20.52,20.52,0,0,0,1.46-1.8Z" style="fill:#fff"></path><path d="M331.92,83a17.19,17.19,0,0,0-1.89,6s0,0,0,0a15.67,15.67,0,0,1,1.9-6Z" style="fill:#fff"></path><path d="M329.73,89.94a.27.27,0,0,1,0,.11.17.17,0,0,1,0,.07v0a.14.14,0,0,0,0,.06l0,.06c-.35.42-.75.8-1.13,1.19a20.65,20.65,0,0,1-2.37,2.11,2.73,2.73,0,0,1-1.78.74l-.11,0-.17,0a1.1,1.1,0,0,1-.63-.62h0c-.16-.36-.24-.74-.62-.92s-1.24-.24-1.36-.89v0c-.07-.54.32-.93.55-1.38v0a1,1,0,0,0,.12-.46,5.23,5.23,0,0,0-.18-.76v0a.24.24,0,0,1,0-.12.53.53,0,0,1,.52-.41c.4,0,2.22,0,2.69.06a28.44,28.44,0,0,1,2.81.72c1,.12,1.47.34,1.64.55Z" style="fill:#E7D99C"></path><path d="M329.73,89.94a14.85,14.85,0,0,0-1.88-.23,15.32,15.32,0,0,1-2.14-.31,14.48,14.48,0,0,0-2.28-.39,5.9,5.9,0,0,0-1.39.13v0a6.17,6.17,0,0,1,1.49-.12,15.44,15.44,0,0,1,2.14.37,16,16,0,0,0,2.39.32,9.12,9.12,0,0,1,1.64.23Z" style="fill:#fff"></path><path d="M329.79,90.16a.14.14,0,0,0,0,.06c-1.06.89-2,1.89-3.1,2.74a8.17,8.17,0,0,1-2.22,1.36l-.11,0a6.47,6.47,0,0,0,.8-.36,11.21,11.21,0,0,0,1.76-1.21C327.89,91.91,328.79,91,329.79,90.16Z" style="fill:#fff"></path><path d="M329.78,90.05a.17.17,0,0,1,0,.07c-1.43.17-2.85.32-4.27.61a31.92,31.92,0,0,0-4,1.09v0a28.3,28.3,0,0,1,4.08-1.13A38.44,38.44,0,0,1,329.78,90.05Z" style="fill:#fff"></path><path d="M329.39,90.39a35.76,35.76,0,0,0-3.49,2.13,15.91,15.91,0,0,1-2.36,1.12h0a14.53,14.53,0,0,0,2.57-1.25,30.69,30.69,0,0,1,3.29-2S329.4,90.39,329.39,90.39Z" style="fill:#fff"></path><path d="M328.52,90c-1.29,0-2.58,0-3.88.08a11.51,11.51,0,0,0-2.55.34v0a11.57,11.57,0,0,1,2.42-.34c1.33,0,2.67-.06,4,0C328.53,90,328.53,90,328.52,90Z" style="fill:#fff"></path><path d="M330.8,91.26l1.07,3.12a4,4,0,0,1,.43,2.51,1.24,1.24,0,0,1-.29.48l0,0a1,1,0,0,1-.29.2,2,2,0,0,1-1,0h-.2c-.69,0-1.31.55-2,.47h0l-.14,0a1,1,0,0,1-.66-.63l0-.1,0,0c-.09-.25-.15-.48-.46-.57a1.54,1.54,0,0,1-.3-.11l0,0a.18.18,0,0,1-.07,0c-.56-.54.2-1.5.46-2a14.82,14.82,0,0,0,1.19-2.78,5.73,5.73,0,0,1,.65-1.6h0l.09-.19a1.48,1.48,0,0,1,.13-.21.68.68,0,0,1,.12-.12.52.52,0,0,1,.31-.1h0a.94.94,0,0,1,.24.06l0,0h0a.52.52,0,0,1,.19.14A3.88,3.88,0,0,1,330.8,91.26Z" style="fill:#E7D99C"></path><path d="M329.26,89.77c-.41,1.06-.54,2.23-1,3.3a26.39,26.39,0,0,0-1.46,3.54l0,0a22,22,0,0,1,1.4-3.37c.43-1,.56-2.19.93-3.24A1.48,1.48,0,0,1,329.26,89.77Z" style="fill:#fff"></path><path d="M330,89.63a6.57,6.57,0,0,1,.73,1.89c.24.82.45,1.66.64,2.49s.36,1.72.52,2.59c.05.26.1.51.14.77l0,0c-.05-.3-.1-.61-.16-.91-.15-.78-.3-1.57-.48-2.35s-.37-1.59-.59-2.38a6.89,6.89,0,0,0-.8-2.15l0,0Z" style="fill:#fff"></path><path d="M329.71,89.55a25.51,25.51,0,0,1-.33,4.7c0,.2-.07.4-.1.61a26.41,26.41,0,0,0,.41-5.31Z" style="fill:#fff"></path><path d="M329.28,94.86a24.75,24.75,0,0,1-.82,3.21h0A27.54,27.54,0,0,0,329.28,94.86Z" style="fill:#fff"></path><path d="M329.49,89.75c-.35,2.59-1.36,5-1.88,7.57l0,0c.52-2.54,1.48-5,1.89-7.54C329.48,89.74,329.49,89.75,329.49,89.75Z" style="fill:#fff"></path><path d="M330,90.38a38.68,38.68,0,0,1,.47,4.43c0,.73,0,1.45,0,2.18,0,.2,0,.41,0,.61h0c0-.2,0-.4,0-.61,0-.7.06-1.41,0-2.12-.05-1.51-.26-3-.45-4.49Z" style="fill:#fff"></path><path d="M337,89.25l0,0s0,0,0,.06a1.63,1.63,0,0,1,0,.93v0a2,2,0,0,0-.05.26,2.13,2.13,0,0,0,.06.87c.06.22.17.43.21.66a1.36,1.36,0,0,1,0,.2h0a1.14,1.14,0,0,1-.3.74,1.26,1.26,0,0,1-.38.27h0l-.11.06a1.93,1.93,0,0,0-.66.61.8.8,0,0,1-.13.13l0,0c-.53.39-1.51-.06-3.38-1.58-.53-.43-1-1-1.49-1.43-.35-.31-.85-.6-1-1.06a.69.69,0,0,1,0-.22v0a.07.07,0,0,1,0,0h0a.46.46,0,0,1,0-.09h0s0,0,0,0l0,0s0,0,0,0a.92.92,0,0,1,.34-.19,8.43,8.43,0,0,1,1.48-.37l3.42-.51a2.71,2.71,0,0,1,1.2,0A1.25,1.25,0,0,1,337,89.25Z" style="fill:#E7D99C"></path><path d="M335.63,94.12l0,0a9.8,9.8,0,0,1-2.79-1.82,23.55,23.55,0,0,1-3.14-2.47v0a24.8,24.8,0,0,0,3.07,2.4A10.25,10.25,0,0,0,335.63,94.12Z" style="fill:#fff"></path><path d="M337,89.25l0,0a7.45,7.45,0,0,0-3.05-.17,25.26,25.26,0,0,0-4.16.49s0,0,0,0a11.5,11.5,0,0,1,2-.33c.79-.06,1.57-.14,2.36-.21A6.75,6.75,0,0,1,337,89.25Z" style="fill:#fff"></path><path d="M337.22,92.29h0l-.35-.15Z" style="fill:#fff"></path><path d="M335,91.5l-1.15-.29a33.31,33.31,0,0,1-4.11-1.43h0A39.07,39.07,0,0,0,334,91.25Z" style="fill:#fff"></path><path d="M335,91.5c.65.2,1.29.41,1.92.65-.26-.11-.51-.22-.77-.31S335.34,91.6,335,91.5Z" style="fill:#fff"></path><path d="M337,90.27v0c-2.09-.8-4.48-.58-6.7-.61h0C332.48,89.66,334.9,89.47,337,90.27Z" style="fill:#fff"></path><path d="M330.31,90.22h0c.13.09.27.19.41.27h0C330.59,90.39,330.45,90.31,330.31,90.22Z" style="fill:#fff"></path><path d="M336.54,93.31h0c-.22-.09-.43-.19-.64-.3-.5-.25-1-.49-1.51-.7-1.13-.48-2.23-1-3.31-1.6h0c1.05.55,2.12,1.07,3.22,1.53.49.22,1,.44,1.46.69A8.17,8.17,0,0,0,336.54,93.31Z" style="fill:#fff"></path><path d="M331.61,89.59a.19.19,0,0,0-.16,0l0,0a1.8,1.8,0,0,0-.69-.17,1.31,1.31,0,0,0-.06-.27,4.78,4.78,0,0,1,.44-.29.13.13,0,0,0,.06.07h0l0,0a.16.16,0,0,0,.23-.15.18.18,0,0,0-.23-.18.17.17,0,0,0-.11.22,2,2,0,0,0-.47.22l-.08-.12.08-.06a1.87,1.87,0,0,0,.3-.33l.06,0h0a.15.15,0,0,0,.18-.16.17.17,0,0,0-.26-.12.15.15,0,0,0,0,.24c-.13.11-.27.21-.4.3a1.18,1.18,0,0,0,.16-.29,1.12,1.12,0,0,0,.08-.51h0a.13.13,0,0,0,.07-.06.08.08,0,0,0,0-.05.14.14,0,0,0-.25-.12.15.15,0,0,0,0,.17.16.16,0,0,0,.08.06,1.86,1.86,0,0,1-.14.49,1.32,1.32,0,0,1-.16.25.69.69,0,0,0-.2-.13,1.93,1.93,0,0,1,.06-.41,2.25,2.25,0,0,1,.2-.51.18.18,0,0,0,.17-.05.19.19,0,0,0-.05-.29c-.13-.06-.32,0-.27.2a.11.11,0,0,0,0,0l.06.07a1.91,1.91,0,0,0-.32.88,1.14,1.14,0,0,0-.32-.07,1.7,1.7,0,0,0-.18-.63l.05,0a.11.11,0,0,0,0-.06.13.13,0,0,0,0-.13.13.13,0,0,0-.19-.06.13.13,0,0,0-.08.11s0,.06,0,.09a.16.16,0,0,0,.19.1,1.88,1.88,0,0,1,.1.47.76.76,0,0,1,0,.15l-.18,0A1.76,1.76,0,0,0,329,88a.05.05,0,0,0,0,0v0a.14.14,0,0,0,0-.09.1.1,0,0,0,0,0h0a.16.16,0,0,0-.09,0,.13.13,0,0,0-.11.08h0a.12.12,0,0,0,0,.16.15.15,0,0,0,.14,0,.05.05,0,0,0,0,0,1.51,1.51,0,0,1,.31.62h0l-.09,0a2.56,2.56,0,0,1-.7-.92.16.16,0,0,0,.09-.14.19.19,0,0,0-.11-.16.14.14,0,0,0-.14,0,.17.17,0,0,0,0,.27.14.14,0,0,0,.13,0h0a2.23,2.23,0,0,0,.6,1,1.27,1.27,0,0,0-.27.25,1.27,1.27,0,0,1-.23-.41.15.15,0,0,0,0-.18.16.16,0,1,0-.21.22.17.17,0,0,0,.14,0,2,2,0,0,0,.2.48.64.64,0,0,0-.08.14l-.1,0c-.21-.12-.41-.25-.63-.36a.16.16,0,0,0-.05-.18c-.14-.12-.35.06-.29.22a.2.2,0,0,0,.18.12.16.16,0,0,0,.14-.11,2.59,2.59,0,0,0,.55.44l.12.06a1.8,1.8,0,0,0-.08.21,1.1,1.1,0,0,0-.47-.07.2.2,0,0,0-.08-.1.17.17,0,0,0-.25.11.13.13,0,0,0,.05.12h0a.15.15,0,0,0,.24,0,.14.14,0,0,0,0-.1,1.48,1.48,0,0,1,.42.14l0,0a1.08,1.08,0,0,0,0,.18,1,1,0,0,1-.72.13.17.17,0,0,0-.09-.19.16.16,0,0,0-.23.14.11.11,0,0,0,0,.09.14.14,0,0,0,.22,0,.1.1,0,0,0,0,0,1.29,1.29,0,0,0,.75,0,.7.7,0,0,0,.08.2,1.51,1.51,0,0,0-.34.85.15.15,0,0,0-.09.07h0a.13.13,0,0,0-.05.12.19.19,0,0,0,.24.15.18.18,0,0,0,.11-.27.14.14,0,0,0-.12-.08,1.43,1.43,0,0,1,.22-.56.64.64,0,0,1,.13-.15.91.91,0,0,0,.17.17l0,0,0,.12a1.91,1.91,0,0,1-.15.28.12.12,0,0,0-.13,0,.12.12,0,0,0-.06.16.12.12,0,0,0,.16.07c.05,0,.07-.06.07-.11s0,0,0,0,0,0,0,0a.69.69,0,0,0,.19-.25l.05-.12a1.17,1.17,0,0,0,.26.1,1.69,1.69,0,0,1,0,.55h0a.19.19,0,0,0-.18.11.16.16,0,0,0,0,.18h0a.2.2,0,0,0,.29,0,.15.15,0,0,0-.05-.24,1.33,1.33,0,0,0,.06-.56,1.16,1.16,0,0,0,.49-.06c.14.29.16.65.38.88a.18.18,0,0,0,.05.27.19.19,0,0,0,.26-.07.19.19,0,0,0-.22-.27l0,0c-.15-.27-.19-.61-.34-.87a1.08,1.08,0,0,0,.24-.12,1.12,1.12,0,0,0,.39.52.16.16,0,1,0,.08-.07l-.06,0a1.69,1.69,0,0,1-.28-.59l0,0a1.36,1.36,0,0,1,.25.11,6.3,6.3,0,0,1,.53.37.08.08,0,0,0,0,0h0a.19.19,0,0,0,.08.26.2.2,0,0,0,.29-.11.22.22,0,0,0-.2-.3.21.21,0,0,0-.13.07,4.06,4.06,0,0,0-.51-.42l-.2-.12a1.09,1.09,0,0,0,.13-.17l.11,0a2.31,2.31,0,0,1,.48.28s0,0,0,0a.1.1,0,0,0,0,.09.13.13,0,0,0,.22,0c.06-.07.05-.21-.06-.23a.11.11,0,0,0-.11,0,2.21,2.21,0,0,0-.56-.38,1.12,1.12,0,0,0,.11-.25,1.5,1.5,0,0,0,.24.2,1.06,1.06,0,0,0,.48.22.11.11,0,0,0,0,0h0a.15.15,0,0,0,.16.14.22.22,0,0,0,.16-.12.2.2,0,0,0,0-.21.18.18,0,0,0-.21,0,.15.15,0,0,0-.07.09,1.17,1.17,0,0,1-.52-.29,1.9,1.9,0,0,1-.19-.21.41.41,0,0,0,0-.11h.14a1.71,1.71,0,0,1,.54.1,0,0,0,0,0,0,.05v0h0a.16.16,0,0,0,.26,0A.16.16,0,0,0,331.61,89.59Z" style="fill:#263238"></path></g><g id="freepik--character-1--inject-288"><path d="M116.59,106.41C88.87,114,65.23,130,63.91,138.45c-1.88,12.16,4,43.82,9.38,58,1.56,4.17,33.77-8.67,32.1-13.13-2-5.39-11.76-36.82-11.79-37.39-.07-1.24,24.08-22.27,30.35-27.34C135.46,109.3,131.66,102.28,116.59,106.41Z" style="fill:#ad6359"></path><path d="M79.86,214C75.75,208.16,72,193,72.48,189s26-11.25,29.35-8.8,15.65,23,15.22,30.27S84.11,220,79.86,214Z" style="fill:#ad6359"></path><path d="M115.47,199.23c-3.45-1.5-3.25,3.43-3.25,3.43s-2-7-6.16-7.19c-4-.16-3.54,5.78-3.52,6.21-.11-.37-2.12-6.77-6.31-6.52-4.36.28-2.88,6.16-2.78,6.54-.21-.32-3.1-4.46-6.24-3.54-5.4,1.58,1.69,12.39.58,16.81,0,0-7.7-1-7.93-1,0,0,6.53,10.42,12.58,11.59a3.92,3.92,0,0,0,4.38-2.23s1.74,3.6,5.05,3.5c1.7-.06,3.12-2.82,3.12-2.82s1.51,2.82,4.45,2.55c2.34-.21,3.4-2.95,3.4-2.95s2.71,2,5,1C122.57,222.64,122.85,202.45,115.47,199.23Z" style="fill:#ad6359"></path><path d="M113.08,223.18a.05.05,0,0,0,.1,0,35,35,0,0,0-.94-20.81c-.08-.21-.46-.17-.41.08A72,72,0,0,1,113.08,223.18Z" style="fill:#263238"></path><path d="M105,224.09c0,.08.12.09.14,0,1.73-6.83,1.32-15.6-2.44-22.64-.13-.24-.48-.33-.36,0C104.52,206.29,105.68,217.6,105,224.09Z" style="fill:#263238"></path><path d="M93,201.3c3.34,6.89,4.14,14.15,3.89,21.73a.08.08,0,0,0,.16,0c1.14-3.68.79-8.53.21-12.28a20.16,20.16,0,0,0-4-9.59C93.17,201.07,93,201.15,93,201.3Z" style="fill:#263238"></path><path d="M112.22,202.66a22.43,22.43,0,0,0-1.87-3.77,7.7,7.7,0,0,0-2.82-2.87,2.54,2.54,0,0,0-1.81-.19,3.64,3.64,0,0,0-1.61.94,4.51,4.51,0,0,0-1,3.51l.28,3.07L102,200.56a12.83,12.83,0,0,0-2.31-3.38,4.5,4.5,0,0,0-3.33-1.58,2.57,2.57,0,0,0-2.55,2,7.76,7.76,0,0,0,.2,3.9L95,205l-2.07-3a12,12,0,0,0-2-2.26,4.89,4.89,0,0,0-2.52-1.25,2.34,2.34,0,0,0-2.23,1,5.17,5.17,0,0,0-.43,2.84A40.43,40.43,0,0,0,87,208.62c.25,1,.51,2.08.71,3.14a7.56,7.56,0,0,1,.12,3.21,8.17,8.17,0,0,0-.41-3.14c-.28-1-.61-2.05-.94-3.06a34.48,34.48,0,0,1-1.58-6.29,6,6,0,0,1,.41-3.42,3.3,3.3,0,0,1,3.22-1.64,5.93,5.93,0,0,1,3.18,1.46A12.85,12.85,0,0,1,94,201.36l-1.09.53a9,9,0,0,1-.28-4.61A3.75,3.75,0,0,1,94,195.15a4.26,4.26,0,0,1,2.37-.79,5.69,5.69,0,0,1,4.22,2,13.74,13.74,0,0,1,2.48,3.75l-1,.29a5.36,5.36,0,0,1,1.51-4.28,4.52,4.52,0,0,1,2.06-1.06,3.31,3.31,0,0,1,2.29.35,7.89,7.89,0,0,1,2.83,3.28A18.93,18.93,0,0,1,112.22,202.66Z" style="fill:#263238"></path><path d="M104.55,183.36s25.69,15.74,14.61,22.77c-3.29,2.09-19.29,6.73-20.29,3.54-1.28-4.13,5-7.32,9.32-8.69,0,0-9.49-4.12-8.59-11.59A7.46,7.46,0,0,1,104.55,183.36Z" style="fill:#ad6359"></path><path d="M120.05,205.49a16.06,16.06,0,0,1-4,2.35,35,35,0,0,1-4.33,1.58,52.54,52.54,0,0,1-9,1.93,8.42,8.42,0,0,1-2.45,0,3.38,3.38,0,0,1-1.3-.53,2.56,2.56,0,0,1-.56-.54,2.41,2.41,0,0,1-.33-.69,3.89,3.89,0,0,1,.19-2.68,7.09,7.09,0,0,1,1.45-2.06,14,14,0,0,1,3.94-2.66,33.23,33.23,0,0,1,4.34-1.68l0,1a17.39,17.39,0,0,1-3-1.82,17.6,17.6,0,0,1-2.62-2.33,12.23,12.23,0,0,1-1.93-2.92,9.19,9.19,0,0,1-.84-3.35,10.48,10.48,0,0,0,1.17,3.18,12.29,12.29,0,0,0,2.09,2.62,17,17,0,0,0,2.62,2.09,17.61,17.61,0,0,0,2.94,1.55l1.27.51-1.31.49a33.37,33.37,0,0,0-4.13,1.74,13.56,13.56,0,0,0-3.57,2.48c-1,1-1.7,2.33-1.34,3.45s1.91,1.09,3.33,1,3-.36,4.47-.61,3-.54,4.45-.9A29.15,29.15,0,0,0,120.05,205.49Z" style="fill:#263238"></path><path d="M104.78,178.13l-38.87,11s-7.14-47.53-2.33-54.24,29.58-23.18,49.77-28.21,23.83,2.11,7.33,15.32-24.2,21.85-24.13,22.42S104.78,178.13,104.78,178.13Z" style="fill:#455a64"></path><path d="M102.08,178.89a5.44,5.44,0,0,0-1.44-3.12c-1.09-.86-3-.31-4,.18-.78.36-1.15.94-1.39.81s.43-1.35.14-2.5c-.35-1.36-2-2.17-3.17-2.41-2.77-.6-6,1.32-6,3a2.83,2.83,0,0,0,1.16,2,9.81,9.81,0,0,1,1,.58c.31.24,1.13.94,1,1.25-.28.62-3.44-1.16-5.18.09-1.34,1-1.77,3.64-.72,5.35l8.89-2.51a1.48,1.48,0,0,1-.47-1.09,1.69,1.69,0,0,1,3.38,0,1.27,1.27,0,0,1,0,.28ZM110,130.2c-1.09-.86-3-.3-4,.19-.78.36-1.15.94-1.39.8s.44-1.35.14-2.5c-.35-1.36-2-2.16-3.17-2.41-2.77-.6-6,1.32-6,3a2.81,2.81,0,0,0,1.16,2,11.49,11.49,0,0,1,1,.59c.31.23,1.12.93,1,1.24-.28.62-3.44-1.15-5.18.09-1.48,1.06-1.85,4.23-.36,5.85a3,3,0,0,0,2.32,1.07c.74-.12,1.16-.71,2.68-1.16.43-.12.63-.14.72,0,.25.3-.9,1.18-1.12,2.45a3.21,3.21,0,0,0,.09,1.34,142.06,142.06,0,0,1,12.59-12.15A2.44,2.44,0,0,0,110,130.2Zm-7.15,6.39a1.6,1.6,0,1,1,1.69-1.6A1.64,1.64,0,0,1,102.8,136.59ZM69,141.23c-.45-1.31-2.35-1.86-3.51-2-.84-.11-1.47.18-1.6-.06s1.09-.91,1.46-2a3.76,3.76,0,0,0-1-3.25c-.3.34-.55.67-.77,1C62,137,61.71,143.55,62,151.35a3.64,3.64,0,0,0,2.85-1.7c1.06-2-.92-4.82-.92-5.35,0-.8,2,3,4.08,1.06A5.39,5.39,0,0,0,69,141.23Zm32.24,22.3a2.21,2.21,0,0,0,.29,1.21C101.4,164.34,101.3,163.93,101.19,163.53Zm.45,1.83h0a2.29,2.29,0,0,0-.54-.17,1.86,1.86,0,0,0-2.47,1.41c-.24.86.47,2.9,2,2.62.65-.13,1.3-.73,1.47-.5a2.47,2.47,0,0,0-.47,2.13c.09.44.87,1,1.68,1.2C102.8,170.08,102.24,167.78,101.64,165.36ZM81.16,123.94c.11-.15,1.94.51,1.68-1.63a1.81,1.81,0,0,0-1.07-1.65c-1.19.73-2.34,1.45-3.46,2.17a.77.77,0,1,1-1,.76.27.27,0,0,1,0-.13q-1.89,1.23-3.59,2.45a1.4,1.4,0,0,0,.68,0c.65-.13,1.3-.73,1.47-.5a2.47,2.47,0,0,0-.47,2.13c.16.74,2.25,1.73,3.19,1.09,1.28-.87.56-2.23.86-2.24.15,0,.81,1,.95,1.15,1.12,1,2.3-.19,2.53-.83C84,124.07,80.87,124.31,81.16,123.94Zm40.54-5.14a2,2,0,0,0-2.54,1.93,1.81,1.81,0,0,0,.89,1.73l.63-.51c.85-.68,1.64-1.34,2.39-2A2.09,2.09,0,0,0,121.7,118.8Zm1.92.68c.54-.49,1.06-1,1.54-1.42A2.39,2.39,0,0,0,123.62,119.48Z" style="opacity:0.1"></path><path d="M98.36,170.56c.1,0,0-.22-.06-.2a285.32,285.32,0,0,0-29.7,8.27.1.1,0,0,0,.06.19A282.82,282.82,0,0,0,98.36,170.56Z" style="fill:#263238"></path><path d="M120.68,122c-16.5,13.22-24.2,21.84-24.13,22.42s8.23,33.75,8.23,33.75l-38.87,11s-1.33-8.83-2.45-19.41l52-63.54C133.78,102.12,136.58,109.22,120.68,122Z" style="opacity:0.1"></path><path d="M82.38,362.21,55.92,401.9C51.55,410,47.86,417.12,46.3,421a.14.14,0,0,0,0,.06,6.45,6.45,0,0,0-.76,2.82.64.64,0,0,0,0,.07c1.52,2.93,65,39.75,67.63,40.28s4.39-7,3.06-10.35-19.32-28.36-19.32-28.36l26-39.85Z" style="fill:#ad6359"></path><path d="M113.16,464.24c-2.63-.54-66.1-37.36-67.62-40.29,0,0,0-.05,0-.08a6.45,6.45,0,0,1,.76-2.81.14.14,0,0,1,0-.06c1.56-3.88,5.25-11,9.63-19.1,0,0,1.36-2.06,4.3-6.46l40.34,24.47-3.66,5.61s18,25,19.32,28.36S115.82,464.79,113.16,464.24Z" style="fill:#ebebeb"></path><path d="M113.4,464.91c-2.69-.55-66.94-38.06-68.47-41.05-.61-1.12,4.31-10.8,10.6-22.32.06-.12.13-.24.2-.36l41.71,23.74-.42.69s18.17,25.36,19.51,28.82S116.08,465.48,113.4,464.91Z" style="fill:#E7D99C"></path><path d="M113.4,464.91c-2.69-.55-66.94-38.06-68.47-41.05-.61-1.12,4.31-10.8,10.6-22.32.06-.12.13-.24.2-.36l41.71,23.74-.42.69s18.17,25.36,19.51,28.82S116.08,465.48,113.4,464.91Z" style="opacity:0.4"></path><path d="M114.12,462c-10.67-6.59-54.35-32.16-65.4-37.86-.09-.05-.13,0,0,.06,10.44,6.77,54.32,32,65.34,38C114.25,462.3,114.35,462.14,114.12,462Z" style="fill:#263238"></path><path d="M100.43,427.77c-3.8-3.29-9.39-5.68-14.42-4.54-.2,0-.13.32,0,.36a69.38,69.38,0,0,1,14.06,4.71A.32.32,0,0,0,100.43,427.77Z" style="fill:#263238"></path><path d="M102.42,431.42c-3.8-3.29-9.39-5.67-14.42-4.54-.19,0-.13.32,0,.36A69.18,69.18,0,0,1,102.09,432,.32.32,0,0,0,102.42,431.42Z" style="fill:#263238"></path><path d="M104.41,435.07c-3.79-3.29-9.39-5.68-14.42-4.54-.19,0-.13.32,0,.36a69.09,69.09,0,0,1,14,4.71A.32.32,0,0,0,104.41,435.07Z" style="fill:#263238"></path><path d="M99.73,429.41l3.18,29.91c5.82,3.29,9.85,5.46,10.48,5.59,2.68.57,4.47-7.05,3.15-10.49C115.51,451.81,104.85,436.62,99.73,429.41Z" style="opacity:0.2"></path><path d="M54.4,400.21l53.06,30.5s58.87-97.12,60.06-119.47c1.65-30.86-24.7-128.85-24.7-128.85l-42-.29s17.09,100.78,15.7,118C115.75,309.06,54.4,400.21,54.4,400.21Z" style="fill:#E7D99C"></path><path d="M54.4,400.21l53.06,30.5s58.87-97.12,60.06-119.47c1.65-30.86-24.7-128.85-24.7-128.85l-42-.29s17.09,100.78,15.7,118C115.75,309.06,54.4,400.21,54.4,400.21Z" style="fill:#fff;opacity:0.6000000000000001"></path><path d="M105.82,415.69c-2.44-1.76-24.85-14.75-41.92-23-.12-.06-.19.11-.09.17,5.18,3.42,38.63,21.75,41.88,23.05C105.8,415.91,105.93,415.77,105.82,415.69Z" style="fill:#263238"></path><path d="M122.32,278.54c-2-14.75-4.1-29.48-6.55-44.15s-5.06-29.46-8.14-44.09q-.57-2.67-1.16-5.35a.22.22,0,0,0-.43.09c2.59,14.5,5.25,29,7.64,43.54s4.6,29.11,6.6,43.71q.73,5.43,1.44,10.86a96.4,96.4,0,0,1,1.07,11.26A28.78,28.78,0,0,1,121,305a61,61,0,0,1-4.84,9.49c-7.61,12.86-46.62,75.9-47.5,77.53-.06.11.09.22.16.11C77,379.41,107.29,332.1,115,319c3.48-5.9,7.47-11.87,8.6-18.75C124.78,293.11,123.26,285.63,122.32,278.54Z" style="fill:#263238"></path><path d="M108.63,393.4s-.47,48-.48,48c.26,9.17.64,17.21,1.23,21.35a.13.13,0,0,0,0,.06,6.34,6.34,0,0,0,.76,2.82l0,.05c2.78,1.78,76.15,1.89,78.71,1s.32-8.22-2.53-10.5-30.92-14.88-30.92-14.88l0-47.92Z" style="fill:#ad6359"></path><path d="M188.91,466.71c-2.55.86-75.92.75-78.7-1l-.06-.06a6.53,6.53,0,0,1-.75-2.81.2.2,0,0,1,0-.07c-.59-4.14-1-12.18-1.23-21.35,0,0,0-3.11.08-7.74h47.22v7.68s28.06,12.6,30.93,14.88S191.49,465.87,188.91,466.71Z" style="fill:#ebebeb"></path><path d="M189.81,467.43c-2.62.86-77.22.39-80-1.44-1.09-.67-1.66-11.55-2-24.71,0-.13,0-.27,0-.41l48.14-.23,0,.82s28.48,13,31.38,15.29S192.42,466.58,189.81,467.43Z" style="fill:#E7D99C"></path><path d="M189.81,467.43c-2.62.86-77.22.39-80-1.44-1.09-.67-1.66-11.55-2-24.71,0-.13,0-.27,0-.41l48.14-.23,0,.82s28.48,13,31.38,15.29S192.42,466.58,189.81,467.43Z" style="opacity:0.4"></path><path d="M189,464.53c-12.57-.39-63.32-.77-75.78-.2-.1,0-.11.08,0,.08,12.45.66,63.2.63,75.78.33C189.24,464.73,189.25,464.54,189,464.53Z" style="fill:#263238"></path><path d="M160,441.63c-5-1-11-.23-14.81,3.27-.14.13,0,.34.21.29a69.48,69.48,0,0,1,14.57-2.94A.31.31,0,0,0,160,441.63Z" style="fill:#263238"></path><path d="M163.52,443.81c-5-1-11-.24-14.81,3.26-.15.14,0,.35.21.3a69.48,69.48,0,0,1,14.57-2.94A.31.31,0,0,0,163.52,443.81Z" style="fill:#263238"></path><path d="M167.07,446c-4.94-1-11-.23-14.8,3.27-.15.13,0,.34.21.29a69.46,69.46,0,0,1,14.57-2.93A.32.32,0,0,0,167.07,446Z" style="fill:#263238"></path><path d="M140.71,182.29a.28.28,0,0,1,0,.05c-.28.86-15.39,42.26-16.81,42.92-1.61.74,33.37,59.51,35.44,86.81,1.32,17.46,6.75,128.69,6.75,128.69H107s2.4-101.25,3.57-129.4C111,300.44,75.42,246.1,75,212.26c-.14-10.67,7.52-30.16,7.52-30.16Z" style="fill:#E7D99C"></path><path d="M140.71,182.29a.28.28,0,0,1,0,.05c-.28.86-15.39,42.26-16.81,42.92-1.61.74,33.37,59.51,35.44,86.81,1.32,17.46,6.75,128.69,6.75,128.69H107s2.4-101.25,3.57-129.4C111,300.44,75.42,246.1,75,212.26c-.14-10.67,7.52-30.16,7.52-30.16Z" style="fill:#fff;opacity:0.6000000000000001"></path><path d="M110.83,310.6c0-.45-.35-.6-.39-.14-1.15,15.24-1.42,30.39-2.15,45.65s-.25,31.29-.93,46.51c-.38,8.61-.13,22.75-.33,31.37a.11.11,0,0,0,.22,0C108.84,418.82,110.82,319.22,110.83,310.6Z" style="fill:#263238"></path><path d="M159.33,312.67a75.12,75.12,0,0,0-1-11.21,56,56,0,0,0-3.16-10.53c-2.83-7.13-6.17-14.08-9.36-21.05s-6.53-14.08-9.94-21Q133,243,130.05,237.08c-2-4-4.09-7.83-6.14-11.74a.14.14,0,0,0-.25.12c3.28,7,6.51,14.1,9.79,21.14s6.5,14.1,9.72,21.17,6.34,13.9,9.33,20.93a70.24,70.24,0,0,1,3.65,10.35,60.41,60.41,0,0,1,1.49,11.14c.5,8.73.74,17.5,1.6,26.21a.1.1,0,0,0,.19,0C159.69,328.5,159.57,320.56,159.33,312.67Z" style="fill:#263238"></path><path d="M161,430c-3.18-.41-27.44-1.25-47.74-.38-.14,0-.13.19,0,.21,6.62.58,44,.83,47.72.41C161.06,430.23,161.11,430,161,430Z" style="fill:#263238"></path><path d="M131,223a97.28,97.28,0,0,0-16,5.55.17.17,0,0,0,.11.33c5.36-1.69,10.82-3.26,16.09-5.24A.34.34,0,0,0,131,223Z" style="fill:#263238"></path><path d="M136.12,187.9c0-.18-.31-.25-.33-.06a171.43,171.43,0,0,1-2.62,17.1c-.51,2.62-4.14,17-8.62,15.5-.75-.26-1.07-1.05-1.07-2.23a18.75,18.75,0,0,1,1.07-4.42c.82-3,1.55-6,2.13-9.11a84.15,84.15,0,0,0,1.58-17.34.15.15,0,0,0-.29,0,160.27,160.27,0,0,1-3.85,23.76c-1,3.75-3.47,9.28.45,10.27s7.6-8.32,8.37-10.89A88.65,88.65,0,0,0,136.12,187.9Z" style="fill:#263238"></path><path d="M124.63,220.85a24.26,24.26,0,0,0-1.35,2.93,6.79,6.79,0,0,0-.68,2.45c0,.16.21.2.31.1a9,9,0,0,0,1.32-2.32c.44-.9.91-1.8,1.33-2.71A.52.52,0,0,0,124.63,220.85Z" style="fill:#263238"></path><path d="M116.07,325.63c.26-7.27,1.07-14.9-1.31-21.92a73.28,73.28,0,0,0-4.67-9.95q-2.66-5.13-5.22-10.31c-6.83-13.8-13.27-27.82-19-42.11-2.77-6.88-5.24-14-6.23-21.33A65.43,65.43,0,0,1,81,196.81c.43-1.89.89-3.78,1.4-5.65a.11.11,0,0,0-.21-.07,76.58,76.58,0,0,0-4,22.18,62.94,62.94,0,0,0,3.85,21.21c2.45,7.14,5.53,14.08,8.55,21q4.68,10.68,9.72,21.21c3.34,7,6.91,13.83,10.44,20.71a37.42,37.42,0,0,1,3.93,10.45,54.11,54.11,0,0,1,.42,11.45c-.6,16.08-1.93,82-2.13,98.08q0,3-.07,6.11a.14.14,0,0,0,.28,0C114.25,407.49,115.49,341.66,116.07,325.63Z" style="fill:#263238"></path><path d="M104.6,192.71c0-.11-.18-.09-.2,0-.6,4.43-.94,9-3.08,13-2,3.68-5.38,6.06-9.11,7.72a68.63,68.63,0,0,1-6.64,2.45c-.16,0-.13.3.05.27,4.23-.88,8.53-1.87,12.21-4.24,3.94-2.55,6-6.62,6.61-11.17A39,39,0,0,0,104.6,192.71Z" style="fill:#263238"></path><path d="M75.78,193.51c.15.21,72.23,4,73,3.28.07-.07,2.89-2.29,2.53-8.23-.1-1.63-3.45-8.12-4.4-13.19-3.32-17.78-7.47-47.69-15.45-64.6-2.15-4.55-13.39-8.2-18.43-3.73C90.36,127.15,75.58,193.24,75.78,193.51Z" style="fill:#455a64"></path><path d="M102.07,179.75a5.38,5.38,0,0,0-1.43-4c-1.09-.86-3-.31-4,.18-.78.36-1.15.94-1.39.81s.43-1.35.14-2.5c-.35-1.36-2-2.17-3.17-2.41-2.77-.6-6,1.32-6,3a2.83,2.83,0,0,0,1.16,2,9.81,9.81,0,0,1,1,.58c.31.24,1.13.94,1,1.25-.28.62-3.44-1.16-5.18.09-1.48,1.06-1.85,4.22-.36,5.85a3,3,0,0,0,2.32,1.07c.74-.12,1.15-.72,2.68-1.16.42-.13.63-.15.71,0,.25.3-.89,1.18-1.11,2.46a3.61,3.61,0,0,0,1.29,3.21c1.92,1.6,5.23.62,5.89-.85.45-1,0-2.91-.31-4.55-.07-.35-.19-1.16,0-1,1.69,1.11,1.29,5.84,3.57,5.12.94-.3,3.08-1.81,2.93-3.82-.18-2.24-3.36-3.57-3.65-4C97.62,180.37,101.41,182.52,102.07,179.75Zm-8.58,2.41a1.6,1.6,0,1,1,1.69-1.6A1.65,1.65,0,0,1,93.49,182.16Zm50.77-21.66c-1.75-.33-4,.82-4.23.3-.14-.31.67-1,1-1.25s.66-.35,1-.58a2.88,2.88,0,0,0,1.16-2.05c0-1.67-3.26-3.59-6-3-1.13.25-2.82,1-3.17,2.41-.3,1.15.47,2.31.13,2.5s-.61-.44-1.38-.8c-1.06-.49-3-1-4-.19a5.35,5.35,0,0,0-1.43,4c.65,2.77,4.45.63,4,1.3-.29.44-3.48,1.77-3.65,4-.15,2,2,3.52,2.93,3.82,2.27.73,1.88-4,3.56-5.11.2-.13.08.68,0,1-.34,1.64-.75,3.58-.31,4.56.66,1.46,4,2.45,5.89.85a3.67,3.67,0,0,0,1.3-3.22c-.22-1.27-1.37-2.16-1.12-2.45.09-.11.29-.08.72,0,1.52.45,1.94,1,2.67,1.16a2.82,2.82,0,0,0,2.14-.88C145,164.86,144.65,162.71,144.26,160.5Zm-8.44,3.74a1.6,1.6,0,1,1,1.69-1.6A1.64,1.64,0,0,1,135.82,164.24Zm-24.44-30.06a5.35,5.35,0,0,0-1.43-4c-1.09-.86-3-.3-4,.19-.78.36-1.15.94-1.39.8s.44-1.35.14-2.5c-.35-1.36-2-2.16-3.17-2.41a5.7,5.7,0,0,0-2.5.06q-1.27,2.39-2.49,4.89l.12.09a11.49,11.49,0,0,1,1,.59c.31.23,1.12.93,1,1.24s-1.47-.16-2.85-.31h0c-1,2-1.87,4.07-2.76,6.15a.39.39,0,0,0,.08.1,3,3,0,0,0,2.32,1.07c.74-.12,1.16-.71,2.68-1.16.43-.12.63-.14.72,0,.25.3-.9,1.18-1.12,2.45a3.67,3.67,0,0,0,1.3,3.22c1.91,1.6,5.23.61,5.89-.85.44-1,0-2.91-.32-4.55-.07-.35-.19-1.16,0-1,1.69,1.11,1.3,5.84,3.57,5.11.94-.3,3.08-1.81,2.93-3.82-.17-2.24-3.36-3.57-3.65-4C106.93,134.81,110.73,137,111.38,134.18Zm-8.58,2.41a1.6,1.6,0,1,1,1.69-1.6A1.64,1.64,0,0,1,102.8,136.59Zm4.5,30.62c.11-.15,1.94.51,1.68-1.63s-1.86-2.15-3.46-1.17c-.79.48.31-.71-.66-1.95a2,2,0,0,0-3.2,0,1.93,1.93,0,0,0-.18,2.3c.26.51.79.71.73.86s-.4-.3-1.11-.42a1.86,1.86,0,0,0-2.47,1.41c-.24.86.47,2.9,2,2.62.65-.13,1.3-.73,1.47-.5a2.47,2.47,0,0,0-.47,2.13c.16.74,2.25,1.73,3.19,1.09,1.28-.87.56-2.23.86-2.24s.81,1,.95,1.15c1.12,1,2.3-.19,2.53-.83C110.12,167.34,107,167.58,107.3,167.21Zm-3,.41a.77.77,0,1,1,.84-.76A.81.81,0,0,1,104.33,167.62Zm39.35,19.26a1.88,1.88,0,0,0-2.47-1.42c-.71.13-1,.58-1.11.43s.47-.35.73-.87a1.91,1.91,0,0,0-.18-2.29,2,2,0,0,0-3.2,0c-1,1.25.13,2.44-.66,1.95-1.6-1-3.22-.82-3.46,1.17-.26,2.15,1.57,1.49,1.68,1.63.29.37-2.82.13-1.83,2.81.23.64,1.41,1.82,2.53.83.14-.13.8-1.16.95-1.16.3,0-.42,1.38.86,2.24.94.64,3-.34,3.19-1.08a2.45,2.45,0,0,0-.47-2.13c.16-.23.82.37,1.47.49C143.21,189.78,143.92,187.73,143.68,186.88Zm-5.7,1a.77.77,0,1,1,0-1.53.77.77,0,1,1,0,1.53Zm-8.28-65.73c-.86-2.73-3.17-.64-3.17-1.11,0-.18,1.86-.78.34-2.32s-2.78-.57-3.46,1.19c-.33.86-.18-.75-1.71-1.14a2,2,0,0,0-2.54,1.93,1.94,1.94,0,0,0,1.25,1.93c.53.26,1.07.09,1.11.24s-.5,0-1.14.35a1.86,1.86,0,0,0-1.09,2.62c.33.83,2.14,2,3.16.87.43-.49.58-1.37.86-1.29a2.48,2.48,0,0,0,.92,2c.59.49,2.84,0,3.19-1.08.49-1.47-.91-2.1-.68-2.3a8.11,8.11,0,0,1,1.45.34C129.69,124.48,129.9,122.83,129.7,122.18Zm-5.27,1a.79.79,0,0,1-1.12-.1.8.8,0,0,1,.19-1.11.77.77,0,1,1,.93,1.21Z" style="opacity:0.1"></path><path d="M121.85,86.44s-2.38,4.63-3.68,6-5.76,1-5.76,1,3.2,3.72,4.5,4.1,4.8-1.49,4.8-1.49-4.37,3.71-6.14,3c-1.09-.42,2.38,1.61,2.38,1.61a5.39,5.39,0,0,0,3.86.33C123.77,100.27,121.85,86.44,121.85,86.44Z" style="fill:#263238"></path><path d="M131.51,121c-4.18-.13-10.69-11-12-16.65-.09-.38,1-2.54,2.61-6.73,1-2.55,1.94-5.41,2.66-8.09l15.69,8.61A44.18,44.18,0,0,0,136,108a5.88,5.88,0,0,0-.18,1.13,1.81,1.81,0,0,1,0,.19C135.61,111.5,135.56,121.16,131.51,121Z" style="fill:#ad6359"></path><path d="M134.57,111.88c.3.09.6.16.89.23.2-1.19.32-2.21.38-2.79a1.09,1.09,0,0,1,0-.19A8,8,0,0,1,136,108a44,44,0,0,1,4.4-9.83l-15.69-8.61c-.16.56-.31,1.13-.49,1.7C123.85,97.15,124.42,108.9,134.57,111.88Z" style="fill:#263238"></path><path d="M132.07,121c-3.52.85-12.18-8.08-12.74-7.94-.84.21-5.55,3.39-5.69,3.9s.25,1.93-.08,1.85a12.65,12.65,0,0,1-2.24-3.39c-.46-1,2.32-9.27,3.14-10.21s5.76-3.87,5.89-3.26.78,6.53,1.4,7.58S132.07,121,132.07,121Z" style="fill:#37474f"></path><path d="M132.07,121c-3.52.85-12.18-8.08-12.74-7.94-.84.21-5.55,3.39-5.69,3.9s.25,1.93-.08,1.85a12.65,12.65,0,0,1-2.24-3.39c-.46-1,2.32-9.27,3.14-10.21s5.76-3.87,5.89-3.26.78,6.53,1.4,7.58S132.07,121,132.07,121Z" style="fill:#030402;opacity:0.1"></path><path d="M132.07,121c2.65-.15,4.9-6.94,5.52-7.09.92-.22,1.28,2.71,1.58,2.52s.94-3.49,1-4.36-3.55-5.63-3.78-5.16a17.75,17.75,0,0,0-1.08,4.37C135.09,112.27,132.07,121,132.07,121Z" style="fill:#37474f"></path><path d="M132.07,121c2.65-.15,4.9-6.94,5.52-7.09.92-.22,1.28,2.71,1.58,2.52s.94-3.49,1-4.36-3.55-5.63-3.78-5.16a17.75,17.75,0,0,0-1.08,4.37C135.09,112.27,132.07,121,132.07,121Z" style="fill:#030402;opacity:0.1"></path><path d="M121.62,74.17c-2.08,6.1.57,24,4.82,28.12,6.16,6,16.54,6.86,21.68-.61,5-7.24,1.11-30.51-3.66-34.28C137.43,61.85,124.71,65.17,121.62,74.17Z" style="fill:#ad6359"></path><path d="M138.8,86.08s-.09.07-.08.12c.14,1.21.1,2.62-1,3.12a0,0,0,0,0,0,.07C139.1,89.08,139.13,87.21,138.8,86.08Z" style="fill:#263238"></path><path d="M137.61,84.91c-2,0-1.78,4,0,3.93S139.26,84.89,137.61,84.91Z" style="fill:#263238"></path><path d="M145.82,85.81s.09.06.09.11c0,1.22.25,2.61,1.37,3,0,0,0,.08,0,.07C145.92,88.82,145.64,87,145.82,85.81Z" style="fill:#263238"></path><path d="M146.85,84.49c2-.24,2.28,3.68.47,3.9S145.21,84.69,146.85,84.49Z" style="fill:#263238"></path><path d="M135.89,82.46a15.33,15.33,0,0,0,1.52-.57,2.57,2.57,0,0,0,1.43-.87.82.82,0,0,0-.15-1,2.06,2.06,0,0,0-2.08-.18,3,3,0,0,0-1.72,1.34A.89.89,0,0,0,135.89,82.46Z" style="fill:#263238"></path><path d="M148.2,81.12c-.55-.07-1-.22-1.58-.34a2.66,2.66,0,0,1-1.55-.64.84.84,0,0,1,0-1,2.07,2.07,0,0,1,2-.48,3,3,0,0,1,1.9,1.07A.89.89,0,0,1,148.2,81.12Z" style="fill:#263238"></path><path d="M137.71,97c.3.27.61.65,1.06.66a3.12,3.12,0,0,0,1.29-.36,0,0,0,0,1,.06.06,1.66,1.66,0,0,1-1.52.73,1.31,1.31,0,0,1-1-1C137.57,97,137.66,97,137.71,97Z" style="fill:#263238"></path><path d="M138.82,93.29A4.14,4.14,0,0,0,141.67,95a5.38,5.38,0,0,0,1.5,0,1.26,1.26,0,0,0,.28-.05l.27,0a.31.31,0,0,0,.23-.29h0c0-.05,0-.08,0-.13h0v-.1c0-.94-.17-2.36-.17-2.36.35.15,2.13.86,2.08.37a62.66,62.66,0,0,0-2.19-12.48.11.11,0,0,0-.22,0c.26,3.9,1.2,7.73,1.53,11.65a7.3,7.3,0,0,0-2-.51c-.13.05.35,2.74.33,3.17a.16.16,0,0,1,0,0,5.76,5.76,0,0,1-4.35-1.13C138.84,93.11,138.74,93.2,138.82,93.29Z" style="fill:#263238"></path><path d="M121.48,90.68c3.28-1.11,4.12-12,4.12-12l.94,6.1a14.78,14.78,0,0,0,3.53-5,10.8,10.8,0,0,0,0-6.07,59.73,59.73,0,0,0,8.65,2.69c1.58.34,11.69-.17,11.66-.88-.11-2.13-4.58-10.24-9.13-11.92-7.83-2.88-15.53,3.71-15.53,3.71-5.16,2.08-7.29,5.41-8.14,8.89S120.27,91.09,121.48,90.68Z" style="fill:#263238"></path><path d="M125.15,89.33s-3.94-5.81-6.57-4.41.28,9.78,3.33,11a3.12,3.12,0,0,0,4.2-1.62Z" style="fill:#ad6359"></path><path d="M119.47,87.3a0,0,0,0,0,0,.08c2.14.9,3.25,2.91,4,5a1.73,1.73,0,0,0-2.57-.51s0,.13.06.12a1.9,1.9,0,0,1,2.1.7,8.63,8.63,0,0,1,1,1.72c.1.19.45.09.38-.13a.08.08,0,0,1,0,0C124.49,91.48,122.41,87.62,119.47,87.3Z" style="fill:#263238"></path><path d="M112.37,127.88C125,145,148.93,164.8,156.28,166.75c6.51,1.72,33.69-6.18,46.74-10.45,4.25-1.39-10.86-31.8-15.31-30.07-6.07,2.36-28.78,10.09-30.2,9.6s-21.93-9.8-36.95-17.56C106.94,111.24,107.59,121.38,112.37,127.88Z" style="fill:#ad6359"></path><path d="M193.82,120.14c8.61-5.45,11.66-5.53,16.49-14,3.17-5.55,8.08-5.91,7.84.73-.38,10.87-10,20.24-14.29,22.52Z" style="fill:#ad6359"></path><path d="M173.4,140.07s7.73-10.43,16.34-17.14c5.95-4.65,20-13.31,41-5.05,5,2,10.67,8.28,1.38,8-6.59-.18-10.72-2.28-14.57-1.69,0,0,6.29,8.9,4.13,13.8a96.77,96.77,0,0,1-6.55,12.42,21.18,21.18,0,0,1-2.43-1s-2.45,4.39-9.68,6.87Z" style="fill:#ad6359"></path><path d="M196.13,119.4c4,.22,12.32.82,19,3.69,7.41,3.2,20.83,11.34,18.42,16.79-1.77,4-7.17,1.33-7.17,1.33s4.84,4.54,2.45,7.8c-2.17,3-6.22.66-6.22.66s2.46,3.25-.19,5.71c-3.18,3-7.82-4.35-13.63-4.15C207.48,151.28,196.13,119.4,196.13,119.4Z" style="fill:#ad6359"></path><path d="M210.44,130.36c3.68.82,11.57,4.81,15.92,10.68.1.14,0,.28-.07.18a79,79,0,0,0-15.88-10.79S210.4,130.35,210.44,130.36Z" style="fill:#263238"></path><path d="M207.44,137.94c3.1,1,11.05,5.51,15.25,11.61.09.14,0,.28-.08.17A84.09,84.09,0,0,0,207.4,138,0,0,0,0,1,207.44,137.94Z" style="fill:#263238"></path><path d="M153.63,166.61c11.21,4.37,43.71-6.17,43.71-6.17l-15.7-33.8s-23,8.91-24.35,8.41c-2.72-1.05-23.82-12.4-38.57-18.26-12.4-4.94-12.55,4.4-4.41,15.06C124.12,144.71,149.66,165.07,153.63,166.61Z" style="fill:#455a64"></path><path d="M137.13,153.93l-.33.09c1.93,1.63,3.82,3.18,5.59,4.6a2.82,2.82,0,0,0,.77-1.7C143.16,155.25,139.9,153.33,137.13,153.93ZM167,136.12a5.52,5.52,0,0,0-1.09-3.62c-4.38,1.55-8.09,2.74-8.59,2.55-.76-.29-2.93-1.39-6-2.93a2.74,2.74,0,0,0,.92,1.14,9.81,9.81,0,0,1,1,.58c.32.24,1.13.94,1,1.25-.28.62-3.44-1.16-5.18.09-1.48,1.06-1.85,4.22-.36,5.85A3.06,3.06,0,0,0,151,142.1c.74-.12,1.15-.72,2.68-1.16.43-.13.63-.15.72-.05.25.3-.9,1.18-1.12,2.46a3.64,3.64,0,0,0,1.29,3.21c1.92,1.6,5.24.62,5.9-.85.44-1,0-2.91-.32-4.55-.07-.35-.19-1.16,0-1,1.69,1.11,1.29,5.84,3.57,5.12.94-.3,3.08-1.81,2.93-3.82-.17-2.24-3.36-3.57-3.65-4C162.52,136.74,166.32,138.89,167,136.12Zm-8.58,2.41a1.6,1.6,0,1,1,1.69-1.6A1.65,1.65,0,0,1,158.39,138.53Zm19.23,12.23c-.85-2.72-3.16-.63-3.16-1.1,0-.18,1.85-.78.34-2.32s-2.79-.57-3.46,1.19c-.33.86-.18-.75-1.72-1.14a2,2,0,0,0-2.54,1.93,1.94,1.94,0,0,0,1.26,1.93c.52.26,1.06.09,1.1.24s-.49,0-1.14.35a1.86,1.86,0,0,0-1.09,2.62c.33.83,2.14,2,3.16.87.44-.49.59-1.37.87-1.29a2.4,2.4,0,0,0,.92,2c.58.49,2.83,0,3.19-1.08.48-1.47-.91-2.1-.69-2.3a9.09,9.09,0,0,1,1.46.33C177.62,153.07,177.83,151.41,177.62,150.76Zm-5.26,1a.8.8,0,0,1-1.13-.1.84.84,0,0,1,1.32-1A.81.81,0,0,1,172.36,151.8ZM129.7,122.18a2.84,2.84,0,0,0-.38-.8l-1.35-.62h0c-.76.07-1.43.56-1.43.31,0-.09.46-.28.73-.63-1.12-.51-2.24-1-3.33-1.48a4.32,4.32,0,0,0-.52,1c-.33.86-.18-.75-1.71-1.14a2,2,0,0,0-2.54,1.93,1.94,1.94,0,0,0,1.25,1.93c.53.26,1.07.09,1.11.24s-.5,0-1.14.35a1.86,1.86,0,0,0-1.09,2.62c.33.83,2.14,2,3.16.87.43-.49.58-1.37.86-1.29a2.48,2.48,0,0,0,.92,2c.59.49,2.84,0,3.19-1.08.49-1.47-.91-2.1-.68-2.3a8.11,8.11,0,0,1,1.45.34C129.69,124.48,129.9,122.83,129.7,122.18Zm-5.27,1a.79.79,0,0,1-1.12-.1.8.8,0,0,1,.19-1.11.77.77,0,1,1,.93,1.21Z" style="opacity:0.1"></path><path d="M175.5,132.44c.72,2.48,5,11.89,6.13,14.27s5.92,11.63,7.12,13.94c.05.11.24,0,.19-.12-1-2.43-11.86-26-13.32-28.15C175.59,132.33,175.48,132.37,175.5,132.44Z" style="fill:#263238"></path><path d="M116.71,135.72c9.07,7.9,18,16.89,27.43,24.29-5.23-3.2-9.77-7.38-14.35-11.43s-8.91-8.38-13.08-12.86Z" style="fill:#263238"></path><path d="M118,138.25c1.76,1,3.5,2.17,5.17,3.32a10.56,10.56,0,0,1-5.17-3.32Z" style="fill:#263238"></path></g><g id="freepik--Sparkles--inject-288"><polygon points="233.26 75.36 226.58 76.59 225.08 83.64 223.59 76.59 216.91 75.35 223.56 73.73 225.08 67.08 226.61 73.73 233.26 75.36" style="fill:#E7D99C"></polygon><polygon points="438.64 226.81 431.96 228.05 430.47 235.09 428.97 228.05 422.29 226.81 428.94 225.18 430.47 218.53 431.99 225.18 438.64 226.81" style="fill:#E7D99C"></polygon><polygon points="85.5 338.51 78.81 339.74 77.32 346.78 75.83 339.74 69.15 338.5 75.8 336.88 77.32 330.22 78.84 336.88 85.5 338.51" style="fill:#E7D99C"></polygon><polygon points="243.05 92.81 239.32 93.5 238.48 97.44 237.65 93.5 233.91 92.81 237.63 91.9 238.48 88.19 239.33 91.9 243.05 92.81" style="fill:#E7D99C"></polygon><polygon points="425.94 250.02 422.21 250.71 421.38 254.65 420.54 250.71 416.81 250.02 420.53 249.11 421.38 245.39 422.23 249.11 425.94 250.02" style="fill:#E7D99C"></polygon><polygon points="261.51 202.26 257.78 202.95 256.95 206.88 256.11 202.95 252.38 202.25 256.1 201.35 256.95 197.63 257.8 201.35 261.51 202.26" style="fill:#E7D99C"></polygon><polygon points="76.01 114.48 72.28 115.17 71.44 119.11 70.61 115.17 66.87 114.48 70.59 113.57 71.44 109.86 72.29 113.57 76.01 114.48" style="fill:#E7D99C"></polygon><polygon points="182.26 278.94 178.52 279.63 177.69 283.57 176.85 279.63 173.12 278.94 176.84 278.03 177.69 274.31 178.54 278.03 182.26 278.94" style="fill:#E7D99C"></polygon><path d="M228.75,93.94a1.08,1.08,0,0,0,0,2.16A1.08,1.08,0,0,0,228.75,93.94Z" style="fill:#E7D99C"></path><path d="M186.89,270a1.08,1.08,0,0,0,0,2.16A1.08,1.08,0,0,0,186.89,270Z" style="fill:#E7D99C"></path><path d="M180.59,185.3a1.08,1.08,0,0,0,0,2.16A1.08,1.08,0,0,0,180.59,185.3Z" style="fill:#E7D99C"></path><path d="M429.22,256a.77.77,0,0,0,0,1.53A.77.77,0,0,0,429.22,256Z" style="fill:#E7D99C"></path><path d="M197.54,174.89a.77.77,0,0,0,0,1.53A.77.77,0,0,0,197.54,174.89Z" style="fill:#E7D99C"></path><path d="M97.93,326a.77.77,0,0,0,0,1.53A.77.77,0,0,0,97.93,326Z" style="fill:#E7D99C"></path><path d="M412.88,238.31a.77.77,0,0,0,0,1.53A.77.77,0,0,0,412.88,238.31Z" style="fill:#E7D99C"></path><path d="M62.1,110.57a.77.77,0,0,0,0,1.53A.77.77,0,0,0,62.1,110.57Z" style="fill:#E7D99C"></path><path d="M277.44,320.61a.77.77,0,0,0,0,1.54A.77.77,0,0,0,277.44,320.61Z" style="fill:#E7D99C"></path><path d="M264.11,219.81a.77.77,0,0,0,0,1.53A.77.77,0,0,0,264.11,219.81Z" style="fill:#E7D99C"></path><path d="M216.23,68.2a.77.77,0,0,0,0,1.53A.77.77,0,0,0,216.23,68.2Z" style="fill:#E7D99C"></path></g></svg>
