<svg xmlns="http://www.w3.org/2000/svg" viewBox="0 0 500 500"><g id="freepik--background-complete--inject-1110"><rect x="416.78" y="398.49" width="33.12" height="0.25" style="fill:#ebebeb"></rect><rect x="322.53" y="401.21" width="8.69" height="0.25" style="fill:#ebebeb"></rect><rect x="396.59" y="389.21" width="19.19" height="0.25" style="fill:#ebebeb"></rect><rect x="52.46" y="390.89" width="43.19" height="0.25" style="fill:#ebebeb"></rect><rect x="104.56" y="390.89" width="6.33" height="0.25" style="fill:#ebebeb"></rect><rect x="131.47" y="395.11" width="93.68" height="0.25" style="fill:#ebebeb"></rect><path d="M238.4,337.8H45.3a5.71,5.71,0,0,1-5.71-5.71V60.66A5.71,5.71,0,0,1,45.3,55H238.4a5.71,5.71,0,0,1,5.71,5.71V332.09A5.71,5.71,0,0,1,238.4,337.8ZM45.3,55.2a5.47,5.47,0,0,0-5.46,5.46V332.09a5.47,5.47,0,0,0,5.46,5.46H238.4a5.47,5.47,0,0,0,5.46-5.46V60.66a5.47,5.47,0,0,0-5.46-5.46Z" style="fill:#ebebeb"></path><path d="M454.7,337.8H261.6a5.71,5.71,0,0,1-5.71-5.71V60.66A5.71,5.71,0,0,1,261.6,55H454.7a5.71,5.71,0,0,1,5.71,5.71V332.09A5.71,5.71,0,0,1,454.7,337.8ZM261.6,55.2a5.47,5.47,0,0,0-5.46,5.46V332.09a5.47,5.47,0,0,0,5.46,5.46H454.7a5.47,5.47,0,0,0,5.46-5.46V60.66a5.47,5.47,0,0,0-5.46-5.46Z" style="fill:#ebebeb"></path><rect y="382.4" width="500" height="0.25" style="fill:#ebebeb"></rect><path d="M88.48,133.68c6.17,4.92,18.62,2.28,30.91,1.72,14.29-.65,28.36,0,32.06-4.22,6.89-7.91-11.48-10-11.48-10s1.64-9.17-4.92-7.08c0,0,.33-8.75-8.85-9.17s-10.83,10.42-10.83,10.42-9.51-2-6.56,4.85c0,0-14.43.56-11.8,5.56S82.38,128.82,88.48,133.68Z" style="fill:#ebebeb"></path><path d="M121.24,146.43c5.44,4.34,16.44,2,27.29,1.52,12.61-.58,25,0,28.29-3.73,6.08-7-10.13-8.82-10.13-8.82s1.44-8.09-4.35-6.25c0,0,.29-7.72-7.81-8.08s-9.55,9.19-9.55,9.19-8.4-1.73-5.79,4.28c0,0-12.74.49-10.42,4.9S115.86,142.14,121.24,146.43Z" style="fill:#f5f5f5"></path><path d="M259,121.31c7.2,4.53,21.75,2.1,36.11,1.58,16.69-.6,33.12,0,37.44-3.88,8.05-7.28-13.41-9.19-13.41-9.19s1.92-8.43-5.74-6.51c0,0,.38-8-10.35-8.43s-12.64,9.58-12.64,9.58-11.11-1.8-7.66,4.46c0,0-16.85.52-13.79,5.11S251.86,116.84,259,121.31Z" style="fill:#ebebeb"></path><path d="M310.45,107.84c9.41,5.92,28.43,2.75,47.19,2.07,21.81-.79,43.28,0,48.93-5.07,10.51-9.51-17.52-12-17.52-12s2.5-11-7.51-8.51c0,0,.5-10.51-13.52-11S351.5,85.81,351.5,85.81s-14.52-2.34-10,5.84c0,0-22,.67-18,6.68S301.14,102,310.45,107.84Z" style="fill:#f5f5f5"></path><path d="M128.46,251c.26,1.32.5,2.65.74,4C129,253.64,128.72,252.31,128.46,251Z" style="fill:#e0e0e0"></path><polygon points="62.01 117.39 44.08 113.44 44.08 113.5 62.01 117.39" style="fill:#e0e0e0"></polygon><path d="M126.81,242.93c.26,1.19.52,2.4.77,3.62C127.33,245.33,127.07,244.12,126.81,242.93Z" style="fill:#e0e0e0"></path><path d="M127.65,246.92c.26,1.25.51,2.51.76,3.79C128.16,249.43,127.91,248.17,127.65,246.92Z" style="fill:#e0e0e0"></path><path d="M56.19,136.23l-.85.11h0L44.1,137.66l0,0v4.82l11.22-1.33h0c2.08,1.47,4.35,4,6.47,8.4,6.35,13.06,6.38,8.26,6.38,8.26l0,9.74s-4.84.65-9.49,13.7L54,194.28l1.18,21.23,6.92,17.42L67,382.11l75.58-.24-13.72,0L117.13,278.37l-15-104.88a261.09,261.09,0,0,1,15.52,36.41c-16-46.87-37.74-70.5-38.95-70.71C76.92,138.88,63,117.61,63,117.61h0l1.8,17Zm23.42,30.13a159.22,159.22,0,0,1,16,32.84,189.84,189.84,0,0,1,9.07,37.62c5.74,42,14.31,106.88,17.83,145l-49.1.16L66.43,233.08c-.92-18-3.82-35.48-.05-52.72l4.17-10.93C71.4,165.56,77.67,163.35,79.61,166.36Z" style="fill:#e0e0e0"></path><path d="M142.76,371.34l-9.43-84.8c-.93-11.1-2.34-21.57-4.1-31.41,1.76,9.84,3.16,20.31,4.1,31.41Z" style="fill:#e0e0e0"></path><path d="M118.8,213.42c.34,1,.68,2.09,1,3.15C119.48,215.51,119.14,214.46,118.8,213.42Z" style="fill:#e0e0e0"></path><path d="M119.91,216.89c.32,1,.65,2.08,1,3.13C120.56,219,120.23,217.93,119.91,216.89Z" style="fill:#e0e0e0"></path><path d="M117.65,210c.36,1.06.72,2.13,1.07,3.21C118.37,212.11,118,211,117.65,210Z" style="fill:#e0e0e0"></path><path d="M121,220.42c.31,1,.62,2.08.92,3.14C121.61,222.5,121.3,221.46,121,220.42Z" style="fill:#e0e0e0"></path><path d="M122,224c.3,1,.6,2.1.89,3.16C122.64,226.11,122.34,225.05,122,224Z" style="fill:#e0e0e0"></path><path d="M125,235.15c.28,1.12.55,2.24.81,3.38C125.55,237.39,125.28,236.27,125,235.15Z" style="fill:#e0e0e0"></path><path d="M125.92,239c.27,1.15.53,2.31.79,3.49C126.45,241.32,126.19,240.16,125.92,239Z" style="fill:#e0e0e0"></path><path d="M123.06,227.66c.29,1.06.58,2.13.86,3.22C123.64,229.79,123.35,228.72,123.06,227.66Z" style="fill:#e0e0e0"></path><path d="M124.05,231.37c.28,1.09.56,2.19.83,3.3C124.61,233.56,124.33,232.46,124.05,231.37Z" style="fill:#e0e0e0"></path><polygon points="44.08 142.46 44.08 284.14 49.85 382.15 44.08 382.17 44.08 382.18 54.92 382.14 46.31 229.14 44.08 142.46" style="fill:#e0e0e0"></polygon><polygon points="49.85 382.15 44.08 284.14 44.08 284.17 49.85 382.15" style="fill:#e0e0e0"></polygon><polygon points="49.85 382.15 44.08 284.14 44.08 284.17 49.85 382.15" style="fill:#fff;opacity:0.1"></polygon><polygon points="44.08 382.17 49.85 382.15 44.08 382.17 44.08 382.17" style="fill:#e0e0e0"></polygon><polygon points="44.08 382.17 49.85 382.15 44.08 382.17 44.08 382.17" style="fill:#fff;opacity:0.1"></polygon><polygon points="44.08 382.17 49.85 382.15 44.08 284.17 44.08 382.17" style="fill:#e0e0e0"></polygon><polygon points="44.08 382.17 49.85 382.15 44.08 284.17 44.08 382.17" style="fill:#fff;opacity:0.1"></polygon><polygon points="44.08 382.17 49.85 382.15 44.08 284.17 44.08 382.17" style="fill:#fff;opacity:0.1"></polygon><path d="M118.72,213.19c0,.08,0,.16.08.23S118.75,213.27,118.72,213.19Z" style="fill:#fff;opacity:0.2"></path><path d="M124.88,234.67l.12.48Z" style="fill:#fff;opacity:0.2"></path><path d="M120.87,220l.12.4Z" style="fill:#fff;opacity:0.2"></path><path d="M125.81,238.53c0,.16.08.32.11.48C125.89,238.85,125.85,238.69,125.81,238.53Z" style="fill:#fff;opacity:0.2"></path><path d="M119.81,216.57c0,.11.07.21.1.32C119.88,216.78,119.84,216.68,119.81,216.57Z" style="fill:#fff;opacity:0.2"></path><path d="M123.92,230.88c0,.16.09.32.13.49C124,231.2,124,231,123.92,230.88Z" style="fill:#fff;opacity:0.2"></path><polygon points="142.57 381.87 143.93 381.87 142.76 371.34 143.93 381.87 142.57 381.87" style="fill:#fff;opacity:0.2"></polygon><path d="M117.62,209.9l0,.08Z" style="fill:#fff;opacity:0.2"></path><path d="M121.91,223.56c0,.15.09.3.13.45C122,223.86,122,223.71,121.91,223.56Z" style="fill:#fff;opacity:0.2"></path><path d="M122.93,227.17l.13.49Z" style="fill:#fff;opacity:0.2"></path><path d="M129.2,255l0,.15Z" style="fill:#fff;opacity:0.2"></path><path d="M128.41,250.71a2.33,2.33,0,0,1,.05.28A2.33,2.33,0,0,0,128.41,250.71Z" style="fill:#fff;opacity:0.2"></path><path d="M127.58,246.55c0,.13,0,.25.07.37C127.63,246.8,127.6,246.68,127.58,246.55Z" style="fill:#fff;opacity:0.2"></path><path d="M126.71,242.5c0,.14.07.28.1.43C126.78,242.78,126.74,242.64,126.71,242.5Z" style="fill:#fff;opacity:0.2"></path><path d="M117.13,278.37l11.72,103.54,13.72,0h1.36l-1.17-10.52-9.43-84.8c-.94-11.1-2.34-21.57-4.1-31.41l0-.15c-.24-1.34-.48-2.67-.74-4a2.33,2.33,0,0,0-.05-.28c-.25-1.28-.5-2.54-.76-3.79,0-.12-.05-.24-.07-.37-.25-1.22-.51-2.43-.77-3.62,0-.15-.07-.29-.1-.43-.26-1.18-.52-2.34-.79-3.49,0-.16-.07-.32-.11-.48-.26-1.14-.53-2.26-.81-3.38l-.12-.48c-.27-1.11-.55-2.21-.83-3.3,0-.17-.09-.33-.13-.49-.28-1.09-.57-2.16-.86-3.22l-.13-.49c-.29-1.06-.59-2.12-.89-3.16,0-.15-.08-.3-.13-.45-.3-1.06-.61-2.1-.92-3.14l-.12-.4c-.31-1.05-.64-2.09-1-3.13,0-.11-.07-.21-.1-.32-.33-1.06-.67-2.11-1-3.15,0-.07,0-.15-.08-.23-.35-1.08-.71-2.15-1.07-3.21l0-.08a261.09,261.09,0,0,0-15.52-36.41Z" style="fill:#e0e0e0"></path><path d="M117.13,278.37l11.72,103.54,13.72,0h1.36l-1.17-10.52-9.43-84.8c-.94-11.1-2.34-21.57-4.1-31.41l0-.15c-.24-1.34-.48-2.67-.74-4a2.33,2.33,0,0,0-.05-.28c-.25-1.28-.5-2.54-.76-3.79,0-.12-.05-.24-.07-.37-.25-1.22-.51-2.43-.77-3.62,0-.15-.07-.29-.1-.43-.26-1.18-.52-2.34-.79-3.49,0-.16-.07-.32-.11-.48-.26-1.14-.53-2.26-.81-3.38l-.12-.48c-.27-1.11-.55-2.21-.83-3.3,0-.17-.09-.33-.13-.49-.28-1.09-.57-2.16-.86-3.22l-.13-.49c-.29-1.06-.59-2.12-.89-3.16,0-.15-.08-.3-.13-.45-.3-1.06-.61-2.1-.92-3.14l-.12-.4c-.31-1.05-.64-2.09-1-3.13,0-.11-.07-.21-.1-.32-.33-1.06-.67-2.11-1-3.15,0-.07,0-.15-.08-.23-.35-1.08-.71-2.15-1.07-3.21l0-.08a261.09,261.09,0,0,0-15.52-36.41Z" style="fill:#fff;opacity:0.2"></path><path d="M66.43,233.08,73.38,382l49.1-.16c-3.52-38.14-12.09-103-17.83-145a189.84,189.84,0,0,0-9.07-37.62,159.22,159.22,0,0,0-16-32.84c-1.94-3-8.21-.8-9.06,3.07l-4.17,10.93C62.61,197.6,65.51,215.12,66.43,233.08Z" style="fill:#e0e0e0"></path><path d="M66.43,233.08,73.38,382l49.1-.16c-3.52-38.14-12.09-103-17.83-145a189.84,189.84,0,0,0-9.07-37.62,159.22,159.22,0,0,0-16-32.84c-1.94-3-8.21-.8-9.06,3.07l-4.17,10.93C62.61,197.6,65.51,215.12,66.43,233.08Z" style="fill:#fff;opacity:0.30000000000000004"></path><polygon points="54.92 382.14 54.92 382.15 67 382.27 66.99 382.11 54.92 382.14" style="fill:#fff;opacity:0.1"></polygon><path d="M62.07,232.93l-6.92-17.42L54,194.28l4.65-13.05c4.65-13,9.49-13.7,9.49-13.7l0-9.74s0,4.8-6.38-8.26c-2.12-4.37-4.39-6.93-6.47-8.4h0l-11.22,1.33,2.24,86.68,8.6,153,12.07,0Z" style="fill:#e0e0e0"></path><path d="M62.07,232.93l-6.92-17.42L54,194.28l4.65-13.05c4.65-13,9.49-13.7,9.49-13.7l0-9.74s0,4.8-6.38-8.26c-2.12-4.37-4.39-6.93-6.47-8.4h0l-11.22,1.33,2.24,86.68,8.6,153,12.07,0Z" style="fill:#fff;opacity:0.2"></path><polygon points="63.03 117.61 62.01 117.39 63.03 117.61 63.03 117.61" style="fill:#fff;opacity:0.1"></polygon><polygon points="44.08 137.64 44.1 137.66 55.33 136.34 55.34 136.34 56.19 136.23 64.83 134.63 63.03 117.61 62.01 117.39 44.08 113.5 44.08 137.64" style="fill:#e0e0e0"></polygon><polygon points="44.08 137.64 44.1 137.66 55.33 136.34 55.34 136.34 56.19 136.23 64.83 134.63 63.03 117.61 62.01 117.39 44.08 113.5 44.08 137.64" style="fill:#fff;opacity:0.30000000000000004"></polygon><polygon points="433.97 109.54 433.97 109.54 433.97 109.55 433.97 109.54" style="fill:none"></polygon><polygon points="448.82 131.38 442.78 119.61 433.97 109.54 433.97 109.55 437.75 119.58 438.84 155.96 443.79 189.46 449.35 196.71 456.5 283.67 456.5 141.99 456.5 137.17 448.82 131.38" style="fill:#e0e0e0"></polygon><polygon points="422.77 115.76 416.19 119.41 405.92 135.06 416.19 119.41 422.77 115.76" style="fill:#e0e0e0"></polygon><polygon points="355.4 309.67 357.81 285.94 355.4 309.67 354.9 379.01 354.9 379.01 355.4 309.67" style="fill:#e0e0e0"></polygon><polygon points="354.88 381.93 354.9 379.12 354.88 381.94 390.79 381.86 390.61 381.85 354.88 381.93" style="fill:#e0e0e0"></polygon><polygon points="456.5 112.97 434.17 109.44 433.98 109.54 456.5 113.04 456.5 112.97" style="fill:#e0e0e0"></polygon><polygon points="432.18 381.76 432.12 381.76 404.96 381.82 404.96 381.83 456.5 381.71 456.5 381.7 432.18 381.76" style="fill:#e0e0e0"></polygon><polygon points="391.5 157.05 405.92 135.06 391.5 157.05 365.04 214.74 357.81 285.94 365.04 214.75 391.5 157.05" style="fill:#fff;opacity:0.1"></polygon><polygon points="388.16 381.51 354.88 381.93 390.61 381.85 388.1 381.77 388.16 381.51" style="fill:#e0e0e0"></polygon><polygon points="388.16 381.51 354.88 381.93 390.61 381.85 388.1 381.77 388.16 381.51" style="fill:#fff;opacity:0.1"></polygon><polygon points="426.91 191.86 429.14 199.1 429.25 198.62 426.91 191.86" style="fill:#e0e0e0"></polygon><polygon points="426.91 191.86 429.14 199.1 429.25 198.62 426.91 191.86" style="fill:#fff;opacity:0.1"></polygon><polygon points="427.17 155.88 429.13 136.28 428.75 138.38 427.19 152.57 427.17 155.88" style="fill:#e0e0e0"></polygon><polygon points="427.17 155.88 429.13 136.28 428.75 138.38 427.19 152.57 427.17 155.88" style="fill:#fff;opacity:0.1"></polygon><polygon points="354.9 379.01 394.99 170.57 395.43 168.25 403.64 145.56 406.28 138.25 406.29 138.23 409.3 129.92 416.19 119.41 405.92 135.06 391.5 157.05 365.04 214.75 357.81 285.94 355.4 309.67 354.9 379.01" style="fill:#e0e0e0"></polygon><polygon points="443.79 189.46 438.84 155.96 437.75 119.58 438.84 155.96 443.79 189.46" style="fill:#e0e0e0"></polygon><polygon points="443.79 189.46 438.84 155.96 437.75 119.58 438.84 155.96 443.79 189.46" style="fill:#fff;opacity:0.1"></polygon><polygon points="436.38 279.64 432.18 381.76 432.18 381.76 436.38 279.62 436.38 279.64" style="fill:#e0e0e0"></polygon><polygon points="436.38 279.64 432.18 381.76 432.18 381.76 436.38 279.62 436.38 279.64" style="fill:#fff;opacity:0.1"></polygon><polygon points="405.07 381.29 404.96 381.82 432.12 381.76 409.73 381.23 405.07 381.29" style="fill:#e0e0e0"></polygon><polygon points="405.07 381.29 404.96 381.82 432.12 381.76 409.73 381.23 405.07 381.29" style="fill:#fff;opacity:0.1"></polygon><polygon points="443.79 189.46 446.41 192.88 446.41 192.88 449.35 196.71 450.46 210.25 456.5 283.7 456.5 283.67 449.35 196.71 443.79 189.46" style="fill:#e0e0e0"></polygon><polygon points="443.79 189.46 446.41 192.88 446.41 192.88 449.35 196.71 450.46 210.25 456.5 283.7 456.5 283.67 449.35 196.71 443.79 189.46" style="fill:#fff;opacity:0.1"></polygon><polygon points="432.18 381.76 432.18 381.76 456.5 381.7 456.5 381.7 432.18 381.76" style="fill:#e0e0e0"></polygon><polygon points="432.18 381.76 432.18 381.76 456.5 381.7 456.5 381.7 432.18 381.76" style="fill:#fff;opacity:0.1"></polygon><polygon points="433.97 109.55 433.97 109.54 433.97 109.55 433.97 109.55" style="fill:#fff;opacity:0.1"></polygon><polygon points="433.97 109.55 433.97 109.54 433.97 109.55 433.97 109.55" style="fill:#fff;opacity:0.1"></polygon><polygon points="403.64 145.56 395.43 168.25 394.99 170.57 395.44 168.26 403.64 145.56" style="fill:#e0e0e0"></polygon><polygon points="403.64 145.56 395.43 168.25 394.99 170.57 395.44 168.26 403.64 145.56" style="fill:#fff;opacity:0.1"></polygon><polygon points="403.64 145.56 395.43 168.25 394.99 170.57 395.44 168.26 403.64 145.56" style="fill:#fff;opacity:0.1"></polygon><polygon points="409.3 129.92 406.29 138.23 416.19 119.41 409.3 129.92" style="fill:#e0e0e0"></polygon><polygon points="409.3 129.92 406.29 138.23 416.19 119.41 409.3 129.92" style="fill:#fff;opacity:0.1"></polygon><polygon points="409.3 129.92 406.29 138.23 416.19 119.41 409.3 129.92" style="fill:#fff;opacity:0.1"></polygon><polygon points="409.73 381.23 409.73 381.23 436.38 279.6 436.38 279.64 436.38 279.62 432.18 381.76 456.5 381.7 456.5 283.7 450.46 210.25 449.35 196.71 446.41 192.88 405.07 381.29 409.73 381.23" style="fill:#e0e0e0"></polygon><polygon points="409.73 381.23 409.73 381.23 436.38 279.6 436.38 279.64 436.38 279.62 432.18 381.76 456.5 381.7 456.5 283.7 450.46 210.25 449.35 196.71 446.41 192.88 405.07 381.29 409.73 381.23" style="fill:#fff;opacity:0.1"></polygon><polygon points="409.73 381.23 409.73 381.23 436.38 279.6 436.38 279.64 436.38 279.62 432.18 381.76 456.5 381.7 456.5 283.7 450.46 210.25 449.35 196.71 446.41 192.88 405.07 381.29 409.73 381.23" style="fill:#fff;opacity:0.1"></polygon><polygon points="429.14 199.1 426.91 191.86 429.25 198.62 438.84 155.96 437.75 119.58 433.97 109.55 433.97 109.55 429.13 136.28 427.17 155.88 427.19 152.57 428.75 138.38 384.85 381.05 354.88 381.93 388.16 381.51 429.14 199.1" style="fill:#e0e0e0"></polygon><polygon points="429.14 199.1 426.91 191.86 429.25 198.62 438.84 155.96 437.75 119.58 433.97 109.55 433.97 109.55 429.13 136.28 427.17 155.88 427.19 152.57 428.75 138.38 384.85 381.05 354.88 381.93 388.16 381.51 429.14 199.1" style="fill:#fff;opacity:0.1"></polygon><polygon points="429.14 199.1 426.91 191.86 429.25 198.62 438.84 155.96 437.75 119.58 433.97 109.55 433.97 109.55 429.13 136.28 427.17 155.88 427.19 152.57 428.75 138.38 384.85 381.05 354.88 381.93 388.16 381.51 429.14 199.1" style="fill:#fff;opacity:0.1"></polygon><polygon points="354.9 379.01 354.9 379.12 354.9 379.01 354.9 379.01" style="fill:#fff;opacity:0.2"></polygon><polygon points="354.9 379.01 354.9 379.01 354.9 379.12 354.88 381.93 354.9 379.01" style="fill:#e0e0e0"></polygon><polygon points="354.9 379.01 354.9 379.01 354.9 379.12 354.88 381.93 354.9 379.01" style="fill:#fff;opacity:0.2"></polygon><polygon points="406.28 138.25 403.64 145.56 406.29 138.23 406.28 138.25" style="fill:#e0e0e0"></polygon><polygon points="406.28 138.25 403.64 145.56 406.29 138.23 406.28 138.25" style="fill:#fff;opacity:0.1"></polygon><polygon points="406.28 138.25 403.64 145.56 406.29 138.23 406.28 138.25" style="fill:#fff;opacity:0.2"></polygon><polygon points="430.68 120.78 428.75 138.38 429.13 136.28 430.68 120.78" style="fill:#e0e0e0"></polygon><polygon points="430.68 120.78 428.75 138.38 429.13 136.28 430.68 120.78" style="fill:#fff;opacity:0.1"></polygon><polygon points="430.68 120.78 428.75 138.38 429.13 136.28 430.68 120.78" style="fill:#fff;opacity:0.2"></polygon><polygon points="354.9 379.01 354.88 381.93 394.99 170.57 354.9 379.01" style="fill:#e0e0e0"></polygon><polygon points="354.9 379.01 354.88 381.93 394.99 170.57 354.9 379.01" style="fill:#fff;opacity:0.1"></polygon><polygon points="354.9 379.01 354.88 381.93 394.99 170.57 354.9 379.01" style="fill:#fff;opacity:0.2"></polygon><polygon points="433.97 109.54 422.77 115.76 433.97 109.55 433.97 109.54" style="fill:#fff;opacity:0.1"></polygon><polygon points="433.97 109.54 422.77 115.76 433.97 109.55 433.97 109.54" style="fill:#fff;opacity:0.1"></polygon><polygon points="433.97 109.54 422.77 115.76 433.97 109.55 433.97 109.54" style="fill:#fff;opacity:0.2"></polygon><polygon points="406.29 138.23 403.64 145.56 395.44 168.26 394.99 170.57 354.88 381.93 384.85 381.05 428.75 138.38 430.68 120.78 429.13 136.28 433.97 109.55 422.77 115.76 416.19 119.41 406.29 138.23" style="fill:#e0e0e0"></polygon><polygon points="406.29 138.23 403.64 145.56 395.44 168.26 394.99 170.57 354.88 381.93 384.85 381.05 428.75 138.38 430.68 120.78 429.13 136.28 433.97 109.55 422.77 115.76 416.19 119.41 406.29 138.23" style="fill:#fff;opacity:0.1"></polygon><polygon points="406.29 138.23 403.64 145.56 395.44 168.26 394.99 170.57 354.88 381.93 384.85 381.05 428.75 138.38 430.68 120.78 429.13 136.28 433.97 109.55 422.77 115.76 416.19 119.41 406.29 138.23" style="fill:#fff;opacity:0.1"></polygon><polygon points="406.29 138.23 403.64 145.56 395.44 168.26 394.99 170.57 354.88 381.93 384.85 381.05 428.75 138.38 430.68 120.78 429.13 136.28 433.97 109.55 422.77 115.76 416.19 119.41 406.29 138.23" style="fill:#fff;opacity:0.2"></polygon><polygon points="433.98 109.54 433.97 109.54 433.97 109.54 433.98 109.54" style="fill:#fff;opacity:0.1"></polygon><polygon points="442.78 119.61 448.82 131.38 456.5 137.17 456.5 113.04 433.98 109.54 433.97 109.54 442.78 119.61" style="fill:#e0e0e0"></polygon><polygon points="442.78 119.61 448.82 131.38 456.5 137.17 456.5 113.04 433.98 109.54 433.97 109.54 442.78 119.61" style="fill:#fff;opacity:0.1"></polygon><polygon points="432.12 381.76 432.18 381.76 432.18 381.76 432.12 381.76" style="fill:#e0e0e0"></polygon><polygon points="432.12 381.76 432.18 381.76 432.18 381.76 432.12 381.76" style="fill:#fff;opacity:0.30000000000000004"></polygon><polygon points="436.38 279.64 409.73 381.23 409.73 381.23 432.12 381.76 432.18 381.76 436.38 279.64" style="fill:#e0e0e0"></polygon><polygon points="436.38 279.64 409.73 381.23 409.73 381.23 432.12 381.76 432.18 381.76 436.38 279.64" style="fill:#fff;opacity:0.1"></polygon><polygon points="436.38 279.64 409.73 381.23 409.73 381.23 432.12 381.76 432.18 381.76 436.38 279.64" style="fill:#fff;opacity:0.30000000000000004"></polygon><polygon points="409.73 381.23 409.73 381.23 409.73 381.23 436.38 279.64 436.38 279.6 409.73 381.23" style="fill:#e0e0e0"></polygon><polygon points="409.73 381.23 409.73 381.23 409.73 381.23 436.38 279.64 436.38 279.6 409.73 381.23" style="fill:#fff;opacity:0.1"></polygon><polygon points="409.73 381.23 409.73 381.23 409.73 381.23 436.38 279.64 436.38 279.6 409.73 381.23" style="fill:#fff;opacity:0.1"></polygon><polygon points="409.73 381.23 409.73 381.23 409.73 381.23 436.38 279.64 436.38 279.6 409.73 381.23" style="fill:#fff;opacity:0.30000000000000004"></polygon><polygon points="404.85 382.3 404.96 381.83 390.79 381.86 404.85 382.3" style="fill:#fff;opacity:0.2"></polygon><polygon points="390.61 381.85 390.79 381.86 404.96 381.83 404.96 381.82 390.61 381.85" style="fill:#e0e0e0"></polygon><polygon points="390.61 381.85 390.79 381.86 404.96 381.83 404.96 381.82 390.61 381.85" style="fill:#fff;opacity:0.2"></polygon><polygon points="446.41 192.88 443.79 189.46 446.41 192.88 446.41 192.88" style="fill:#e0e0e0"></polygon><polygon points="446.41 192.88 443.79 189.46 446.41 192.88 446.41 192.88" style="fill:#fff;opacity:0.1"></polygon><polygon points="446.41 192.88 443.79 189.46 446.41 192.88 446.41 192.88" style="fill:#fff;opacity:0.2"></polygon><polygon points="433.24 210.13 429.25 198.62 429.14 199.1 433.39 212.88 433.24 210.13" style="fill:#e0e0e0"></polygon><polygon points="433.24 210.13 429.25 198.62 429.14 199.1 433.39 212.88 433.24 210.13" style="fill:#fff;opacity:0.1"></polygon><polygon points="433.24 210.13 429.25 198.62 429.14 199.1 433.39 212.88 433.24 210.13" style="fill:#fff;opacity:0.2"></polygon><polygon points="388.16 381.51 388.1 381.77 390.61 381.85 404.96 381.82 405.07 381.29 388.16 381.51" style="fill:#e0e0e0"></polygon><polygon points="388.16 381.51 388.1 381.77 390.61 381.85 404.96 381.82 405.07 381.29 388.16 381.51" style="fill:#fff;opacity:0.1"></polygon><polygon points="388.16 381.51 388.1 381.77 390.61 381.85 404.96 381.82 405.07 381.29 388.16 381.51" style="fill:#fff;opacity:0.2"></polygon><polygon points="429.25 198.62 433.24 210.13 433.39 212.88 429.14 199.1 388.16 381.51 405.07 381.29 446.41 192.88 443.79 189.46 438.84 155.96 429.25 198.62" style="fill:#e0e0e0"></polygon><polygon points="429.25 198.62 433.24 210.13 433.39 212.88 429.14 199.1 388.16 381.51 405.07 381.29 446.41 192.88 443.79 189.46 438.84 155.96 429.25 198.62" style="fill:#fff;opacity:0.1"></polygon><polygon points="429.25 198.62 433.24 210.13 433.39 212.88 429.14 199.1 388.16 381.51 405.07 381.29 446.41 192.88 443.79 189.46 438.84 155.96 429.25 198.62" style="fill:#fff;opacity:0.1"></polygon><polygon points="429.25 198.62 433.24 210.13 433.39 212.88 429.14 199.1 388.16 381.51 405.07 381.29 446.41 192.88 443.79 189.46 438.84 155.96 429.25 198.62" style="fill:#fff;opacity:0.2"></polygon><polygon points="354.9 379.01 394.99 170.57 395.43 168.25 403.64 145.56 406.28 138.25 406.29 138.23 409.3 129.92 416.19 119.41 405.92 135.06 391.5 157.05 365.04 214.75 357.81 285.94 355.4 309.67 354.9 379.01" style="fill:#fff;opacity:0.1"></polygon></g><g id="freepik--Shadow--inject-1110"><ellipse id="freepik--path--inject-1110" cx="250" cy="415.69" rx="193.89" ry="11.32" style="fill:#f5f5f5"></ellipse></g><g id="freepik--Floor--inject-1110"><path d="M44.23,284c-.36,1.15,0,55.33,0,55.33L55.34,365.6l2.43,50.09h65.74v-4.55c-.37-1.13-2.16-2-2.76-3.89-4.74-14.55-13.26-40.93-13-41.62.36-1.06,15.33-18.78,15.33-18.78l-15.33-49.28-19.31-4.38L74.06,282.07Z" style="fill:#79D07E"></path><polygon points="119.47 403.36 116.62 415.69 119.47 415.69 120.75 407.25 119.47 403.36" style="fill:#fff;opacity:0.30000000000000004"></polygon><polygon points="57.77 415.69 44.23 339.32 55.34 365.6 57.77 415.69" style="fill:#79D07E"></polygon><polygon points="57.77 415.69 44.23 339.32 55.34 365.6 57.77 415.69" style="opacity:0.30000000000000004"></polygon><polygon points="80.98 346.33 69.22 357.05 72.79 369.36 95.65 369.36 100.54 347.07 80.98 346.33" style="opacity:0.2"></polygon><path d="M44.11,287.72c.72,0,20.59-.62,21.13-.62a65,65,0,0,0,6.06-3l-1.43,3s1.61,3.74,2.32,3.74,13.54,2.5,13.54,2.5l-29.61-.84-12,4.18Z" style="opacity:0.1"></path><path d="M96,300.29a55.58,55.58,0,0,1,1.84,22c-.2,1.72,1,3.56,1.49,5.22,1.52.53,3.23,1.06,4.74,1.59.72,2.61,1.38,5.32,2.1,7.93,1.26.17,2.55.28,3.81.45,1.09,2.7,2.69,5.65,3.77,8.35l2.88-.29c-1.69-6.86-5.2-18.28-6.89-25.14-.38-1.55.8-3.13,1.92-4.27-3.66-12.08-5-16.44-5-16.44C103,299.64,99.63,300.37,96,300.29Z" style="fill:#fff;opacity:0.2"></path><path d="M78,300.64a55.58,55.58,0,0,1,5.77,12.44c3,1.74,6.27,3.81,9.28,5.54.53.3,4.23,3.47,4.79,3.7.7-4.47,1.09-16.39-1.84-22-5.2-.89-13.79-1.45-19-2.33C76.82,298.57,77.65,300.1,78,300.64Z" style="opacity:0.1"></path><path d="M62.68,352.5h-9.5l-2.08,3.07,1.36,3.2C50.32,354.85,47,344.35,44,339.32c0-6.89.18-14.06.17-20.95a24.23,24.23,0,0,1,.55-6l5-6.28,1.7,7a14.29,14.29,0,0,0,4.46,7.36c1.43-.1,5.64,19.17,7.07,19.07a36.89,36.89,0,0,0,.7,6.51c-.88.33-3.56,1.49-4.31,3.79C58.41,352.5,62.68,352.5,62.68,352.5Z" style="opacity:0.1"></path><path d="M122.76,346.81c-5,6.15-10.23,12.65-15.23,18.8-2.5,1.08-5,1.75-11.88,3.75,2.19-7.28,4.89-22.29,4.89-22.29Z" style="opacity:0.1"></path><path d="M103.32,347.54,81,346.33,68.16,342l-5.25-9.66L61,319.7,64.21,298l12.79.38s4.5,13.43,6.76,15.13,14.07,9.24,14.07,9.24l.7,4.47c-.79.48-1.66,1.51-2.45,2q2.67,8.79,4.46,17.82a17.83,17.83,0,0,1,2.6-.34Z" style="fill:#fff;opacity:0.1"></path><path d="M106.64,347a10.4,10.4,0,0,0-3.5-.31,17.83,17.83,0,0,0-2.6.34q-1.79-9-4.46-17.82c.79-.48,1.66-1.51,2.45-2,.35,1.15.74,2.48,1.14,3.84.56,1.91,1.14,3.89,1.63,5.52.63.24,1.37.47,2,.71C104.45,340.56,105.49,343.81,106.64,347Z" style="opacity:0.2"></path><path d="M56.11,298C56,298.56,61,319.7,61,319.7L64.21,298l-4-1.36Z" style="opacity:0.1"></path><polygon points="56.11 297.96 49.69 306.05 44.7 312.33 43.98 313.24 44.11 296.68 56.11 297.96" style="fill:#fff;opacity:0.2"></polygon><polygon points="44.11 296.68 56.12 292.5 88.41 293.19 107.72 297.57 106.68 299.72 95.99 300.29 77 298.42 64.21 298.04 60.16 296.68 56.11 297.96 44.11 296.68" style="fill:#fff;opacity:0.30000000000000004"></polygon><polygon points="72.79 369.36 61.94 367 57.18 366 54.92 364.59 52.46 358.78 52.46 358.77 51.1 355.57 53.18 352.5 62.68 352.5 68.13 356.29 69.22 357.05 72.79 369.36" style="opacity:0.30000000000000004"></polygon><polygon points="55.34 365.6 72.79 369.36 76.98 395.36 93.33 415.69 74.06 415.69 57.77 415.69 55.34 365.6" style="opacity:0.2"></polygon><polygon points="106.3 415.69 106.3 401.46 99.28 395.36 95.65 369.36 100.54 392.43 104.56 393.85 100.1 371.34 101.36 371.34 104.56 389.1 107.72 389.57 103.32 366.94 107.53 365.61 117.44 396.67 112.82 405.53 112.82 415.69 106.3 415.69" style="fill:#fff;opacity:0.2"></polygon><path d="M69.13,357l-1-.7-5.44-3.78s-4.27,0-3.37-2.76c.75-2.3,3.43-3.46,4.31-3.79l.28-.09,3.1-3.81C63.28,352,68.39,356.41,69.13,357Z" style="fill:#fff;opacity:0.1"></path><polygon points="76.98 395.36 91.67 399.56 106.3 401.46 106.3 415.69 93.33 415.69 76.98 395.36" style="opacity:0.30000000000000004"></polygon><path d="M77,395.36c1.26.36,22.3,0,22.3,0l7,6.1-14.63-1.91Z" style="fill:#fff;opacity:0.30000000000000004"></path><path d="M95.65,369.36S82.35,382,82.14,381.87s-7.21.78-7.21.78l-2.14-13.29Z" style="opacity:0.1"></path><path d="M455.52,284c.36,1.15,0,55.33,0,55.33L442,364.21v51.48H383.49l4.67-17.28c-.87-14.61-7.8-34.9-8-35.52-.36-1.07,9.31-18.46,9.31-18.46l-6.18-51.81,27.34,1.25L436.69,284Z" style="fill:#79D07E"></path><polygon points="383.29 292.62 399.32 302.6 418.54 302.6 445.1 296.39 455.68 296.39 455.67 292.62 440.77 292.62 446.41 287.32 422.77 293.3 410.63 293.87 383.29 292.62" style="fill:#fff;opacity:0.30000000000000004"></polygon><polygon points="422.77 344.41 397.87 365.61 394.42 362.89 380.16 362.89 389.47 344.43 412.85 345.86 422.77 344.41" style="fill:#fff;opacity:0.2"></polygon><polygon points="422.77 360.93 441.98 364.21 455.52 339.32 438.84 342.05 422.77 360.93" style="opacity:0.1"></polygon><path d="M445.1,296.4,442,319.22s13.54,21.93,13.55,20.1.16-42.92.16-42.92Z" style="opacity:0.30000000000000004"></path><polygon points="399.32 302.6 403.64 345.3 408.93 333.17 415.94 322.35 418.54 302.6 399.32 302.6" style="opacity:0.2"></polygon><polygon points="422.77 344.41 437.75 329.84 432.54 342.98 422.77 344.41" style="opacity:0.1"></polygon><polygon points="455.52 339.32 441.98 364.21 441.98 415.69 443.89 415.69 455.52 339.32" style="fill:#79D07E"></polygon><polygon points="455.52 339.32 441.98 364.21 441.98 415.69 443.89 415.69 455.52 339.32" style="opacity:0.30000000000000004"></polygon><polygon points="390.61 342.05 392.27 327.26 400.39 313.24 403.64 345.3 389.47 344.43 390.61 342.05" style="opacity:0.1"></polygon><polygon points="412.85 345.86 415.94 322.35 422.21 331.12 422.77 344.41 412.85 345.86" style="opacity:0.1"></polygon><polygon points="432.54 342.98 422.77 360.93 397.87 365.61 422.77 344.41 432.54 342.98" style="fill:#fff;opacity:0.1"></polygon><polygon points="397.87 365.61 399.32 385.3 409.73 385.3 417.29 373.89 411.87 373.54 415.68 371.34 417.88 371.34 422.77 360.93 397.87 365.61" style="opacity:0.1"></polygon><polygon points="441.97 405.53 427.31 401.58 397.79 404.37 399.32 385.3 409.72 385.3 417.29 373.89 411.87 373.53 415.68 371.34 417.88 371.34 422.77 360.93 430.73 362.29 432.53 373.11 429.15 376 427.17 385.3 430.79 395.11 436.38 400.32 427.08 397.18 428.74 399.44 438.84 402.61 441.97 405.53" style="opacity:0.2"></polygon><g style="opacity:0.30000000000000004"><polygon points="399.32 385.3 385.93 381.87 388.16 398.41 397.79 404.37 399.32 385.3" style="opacity:0.2"></polygon></g><polygon points="432.54 373.11 436.38 380.47 441.97 389.46 441.97 376 432.54 373.11" style="opacity:0.2"></polygon><path d="M442,319.22c-.75,2.87-9.44,23.75-9.44,23.75s13.88-1.84,22.73-3.65Z" style="opacity:0.2"></path><polygon points="441.97 405.53 392.27 415.69 441.98 415.69 441.97 405.53" style="opacity:0.30000000000000004"></polygon><path d="M399.57,414.23l-2.71.55,20.77-4.17-19.84-6.24-9.63-6-4.67,17.28h8.78l4.59-.91-5.72-3.64.59-1.72m4.16.72.59-1.72,7.85,4.81-2.72.56Z" style="fill:#fff;opacity:0.2"></path><path d="M76.37,275.17c-1.21-6.34-6.22-10.26-11.32-14.2,3,5.45,6.65,10.46,8.2,16.51a29.23,29.23,0,0,0-8.36-8.11s4.6,9.36,6.4,11.19a24.23,24.23,0,0,0-13.87-7.39C67.31,280,70.76,286.3,72.06,290a4.53,4.53,0,0,0,4.23,3l10.6.13a4.58,4.58,0,0,0,4.3-2.93,20.89,20.89,0,0,1,10.1-11.56c-4.06,1.06-7.47,1.81-10,5.18a14.45,14.45,0,0,1,9-9.82c-4.44.63-8.84,2.2-10.73,6.27a16,16,0,0,1,6.82-11.65c-3.81.5-7.5,3.14-8.3,6.89,0-5,.6-10.07,3.42-14.23A15.76,15.76,0,0,0,84.5,272c-1.1-4.35-1.57-10.69-6.5-16.44a35.35,35.35,0,0,1,1.49,15.31c-.38-2.65-4.2-9.42-7.93-11.93C71.56,258.93,76.88,268.85,76.37,275.17Z" style="fill:#79D07E"></path><path d="M65.75,285.73a15.17,15.17,0,0,1,4.71,3.83,10.61,10.61,0,0,0-4.82.13l5.84.89a5.46,5.46,0,0,0-3.38,1.67,10,10,0,0,1,4.89-.13,6.43,6.43,0,0,0,1.79.28,1.55,1.55,0,0,0,1.42-.95,1.9,1.9,0,0,0-.3-1.43C73.92,286.51,69.4,285.9,65.75,285.73Z" style="fill:#79D07E"></path><path d="M95.62,287a17.83,17.83,0,0,1-4.92,3.07,13.27,13.27,0,0,1,5.57.45,11.54,11.54,0,0,1-5,.73,8.15,8.15,0,0,1,3,1.39l-6.82.53a2.31,2.31,0,0,1,.21-2C89,289,93.3,287.62,95.62,287Z" style="fill:#79D07E"></path><g style="opacity:0.6000000000000001"><path d="M76.37,275.17c-1.21-6.34-6.22-10.26-11.32-14.2,3,5.45,6.65,10.46,8.2,16.51a29.23,29.23,0,0,0-8.36-8.11s4.6,9.36,6.4,11.19a24.23,24.23,0,0,0-13.87-7.39C67.31,280,70.76,286.3,72.06,290a4.53,4.53,0,0,0,4.23,3l10.6.13a4.58,4.58,0,0,0,4.3-2.93,20.89,20.89,0,0,1,10.1-11.56c-4.06,1.06-7.47,1.81-10,5.18a14.45,14.45,0,0,1,9-9.82c-4.44.63-8.84,2.2-10.73,6.27a16,16,0,0,1,6.82-11.65c-3.81.5-7.5,3.14-8.3,6.89,0-5,.6-10.07,3.42-14.23A15.76,15.76,0,0,0,84.5,272c-1.1-4.35-1.57-10.69-6.5-16.44a35.35,35.35,0,0,1,1.49,15.31c-.38-2.65-4.2-9.42-7.93-11.93C71.56,258.93,76.88,268.85,76.37,275.17Z" style="fill:#fff"></path><path d="M65.75,285.73a15.17,15.17,0,0,1,4.71,3.83,10.61,10.61,0,0,0-4.82.13l5.84.89a5.46,5.46,0,0,0-3.38,1.67,10,10,0,0,1,4.89-.13,6.43,6.43,0,0,0,1.79.28,1.55,1.55,0,0,0,1.42-.95,1.9,1.9,0,0,0-.3-1.43C73.92,286.51,69.4,285.9,65.75,285.73Z" style="fill:#fff"></path><path d="M95.62,287a17.83,17.83,0,0,1-4.92,3.07,13.27,13.27,0,0,1,5.57.45,11.54,11.54,0,0,1-5,.73,8.15,8.15,0,0,1,3,1.39l-6.82.53a2.31,2.31,0,0,1,.21-2C89,289,93.3,287.62,95.62,287Z" style="fill:#fff"></path></g></g><g id="freepik--speech-bubble--inject-1110"><path d="M275.54,119a10.2,10.2,0,0,1,1.63-.93,9.31,9.31,0,0,0,1.46-.81c.87-.63,1.56-1.78,1.13-2.67-.87-1.81-4.33-2.73-6.19-3.22a9.46,9.46,0,0,1-1.14-.33c-7.46-2.39-12.25-7.24-12.51-12.65-.41-8.47,10.11-15.88,23.45-16.53s24.54,5.73,24.95,14.2-10.12,15.88-23.47,16.52a.84.84,0,0,0-.7.81c-.38,3-2.17,3.89-3.61,4.58l-.19.09a22.67,22.67,0,0,1-4.56,1.48l-1.46.35Z" style="fill:#fff"></path><path d="M274.33,120.34a.48.48,0,0,1-.45-.28.5.5,0,0,1,.16-.62l1.21-.89a10.08,10.08,0,0,1,1.7-1,9.65,9.65,0,0,0,1.39-.77c.7-.5,1.27-1.43,1-2-.77-1.6-4.21-2.51-5.87-2.94-.58-.16-1-.26-1.2-.35-7.62-2.45-12.55-7.47-12.82-13.09C259,89.62,269.73,82,283.35,81.31s25,5.93,25.47,14.68-10.32,16.39-23.95,17c-.18,0-.22.36-.22.38-.42,3.28-2.43,4.25-3.89,5l-.19.09a22.52,22.52,0,0,1-4.65,1.51l-1.47.36Zm1.21-1.39h0Zm9.68-36.68c-.6,0-1.21,0-1.82,0-13.07.63-23.38,7.81-23,16,.25,5.19,4.91,9.87,12.16,12.2.22.08.61.19,1.07.31,2,.52,5.59,1.47,6.56,3.49.55,1.15-.23,2.53-1.28,3.29a10.09,10.09,0,0,1-1.54.86l-.39.2a17.39,17.39,0,0,0,3.13-1.11l.19-.09c1.4-.68,3-1.44,3.33-4.19a1.29,1.29,0,0,1,1.17-1.25c13.08-.63,23.39-7.8,23-16C307.44,88.23,297.47,82.27,285.22,82.27Z" style="fill:#79D07E"></path><polygon points="279.87 106.57 273.71 97.39 277.03 95.16 280.48 100.3 294.7 86.08 297.52 88.91 279.87 106.57" style="fill:#79D07E"></polygon></g><g id="freepik--Character--inject-1110"><path d="M236.28,137.18c5.71,5.34,22.6,21,24.7,22.46,2.28,1.55,21.78-3.5,24-4.94,1.7-1.1,0-3.24-.84-3-3.17,1.05-15.79,1.14-19.71.21-.45-.1-11.49-9.7-17.45-14.95a7.92,7.92,0,0,0-10.68.19Z" style="fill:#79D07E"></path><g style="opacity:0.1;isolation:isolate"><path d="M236.28,137.18c5.71,5.34,22.6,21,24.7,22.46,2.28,1.55,21.78-3.5,24-4.94,1.7-1.1,0-3.24-.84-3-3.17,1.05-15.79,1.14-19.71.21-.45-.1-11.49-9.7-17.45-14.95a7.92,7.92,0,0,0-10.68.19Z"></path></g><path d="M284.12,151.73l.84,3,4.78-.09a1.92,1.92,0,0,0,.85-.16l2-1.24a2,2,0,0,0,1.1-2.5h0a2,2,0,0,0-1.37-1.26l-3.82-.24Z" style="fill:#ffb573"></path><path d="M249.85,150.1a57.71,57.71,0,0,0,5.66,16.68c-15.2,6.8-31.6,8.61-47.51,3.72,9.74-5.14,17.82-10.22,27.56-15.36A45.82,45.82,0,0,1,249.85,150.1Z" style="fill:#79D07E"></path><path d="M249.85,150.1a57.71,57.71,0,0,0,5.66,16.68c-15.2,6.8-31.6,8.61-47.51,3.72,9.74-5.14,17.82-10.22,27.56-15.36A45.82,45.82,0,0,1,249.85,150.1Z" style="opacity:0.2;isolation:isolate"></path><path d="M241.55,134.81a51.47,51.47,0,0,0-6-.67,75.75,75.75,0,0,0-11.07.18,64.08,64.08,0,0,0-6.41.81,2.7,2.7,0,0,0-.63.19,3.23,3.23,0,0,0-1.66,4.16c7,18.15,8.67,26.46,9.93,36.24l21.78-3.17a1.19,1.19,0,0,0,1-1.19c.07-5.05,1.09-16.44,1.09-16.44a12.49,12.49,0,0,0,2-8.28c0-1-2.5-1.73-5.94-6.66C245.6,140,242.74,135,241.55,134.81Z" style="fill:#263238"></path><path d="M243.46,176.35s45,21.63,60.83,34.27c16.71,13.32,44.17,38.7,44.17,38.7l-5,3.81a29.79,29.79,0,0,0-5-3.79c-7.75-4.47-24.12-13.65-40.58-28.6-32.12-7.17-64.82-27.47-64.82-27.47Z" style="fill:#ffb573"></path><path d="M361.35,251.73a8.41,8.41,0,0,0-2.89.91h0s-4.29,2.17-11.43-4.11l-3.34,2c-.4.65,1.59,6.73,1.87,8.05,0,.18,1.35,1.46,1.44,1.62a11.46,11.46,0,0,1,4.05,3l.49-.48-2.52-2.7c-1.41-1.44,2.08-1.71,3.94-.53s5-1.77,5-1.77C361.59,254.14,363.16,251.67,361.35,251.73Z" style="fill:#2e353a"></path><path d="M342,243.37s6.49,5.95,10.89,8.33c2,1.17,6.36.58,6.36.58s-2.1,3.59-4.7,3.07-7.42-1.32-9.46,1.38a13.36,13.36,0,0,0-2.34-4.27C342.57,251.48,342,243.37,342,243.37Z" style="fill:#ffb573"></path><path d="M245,249c9.33-37.62,3.72-66.6,3.72-66.6l-21.44.36s-5.89,2.56.43,20.45c.35,1,6.7,30.56,4,45.89l12.36,2.63Z" style="fill:#ffb573"></path><path d="M178.35,232.71a8.47,8.47,0,0,0,2.39-1.86h0s3.27-3.52,12.15-.13l2.41-3.07c.15-.75-3.83-5.75-4.55-6.89-.1-.16-1.77-.9-1.91-1a11.43,11.43,0,0,1-4.85-1.4l-.29.62,3.31,1.65c1.82.86-1.36,2.33-3.52,1.87s-4.05,3.4-4.05,3.4C177.28,230.54,176.67,233.41,178.35,232.71Z" style="fill:#2e353a"></path><path d="M200.1,234s-8.91-5.18-13.79-4.2c-2.27-.4-6.16,1.68-6.16,1.68s.72-4.09,3.34-4.52,7.41-1.34,8.39-4.58a13.2,13.2,0,0,0,3.68,3.18C196,226.41,200.1,234,200.1,234Z" style="fill:#ffb573"></path><path d="M244.57,249.5c-.39,4.5-4.77,7.56-8.81,5.87a3.68,3.68,0,0,1-.49-.23c-30.4-19.64-39.1-23.06-39.1-23.06l-.61-6.54a213.09,213.09,0,0,1,36.64,14c4.12,2,8.39,4.27,12.65,6.76h0Z" style="fill:#ffb573;isolation:isolate"></path><path d="M225.29,233a52,52,0,0,0,38.31-10c12.78-9.59,28.3-23.54,27.39-24.18-8.81-6.21-47.28-26.58-43.67-24.67l-8.51.94-11.89,1.8s-7.66,7.5-.34,26.32C233.53,221.06,226.26,230.66,225.29,233Z" style="fill:#263238"></path><path d="M227.49,133.89c2.1,1.4,11.08,9.24,3.17,37.05a1.44,1.44,0,0,1-1.93.95A23.38,23.38,0,0,0,218.15,170c-4.45.4-7.37.7-9.41.65a1.44,1.44,0,0,1-.91-2.53,29.21,29.21,0,0,0,9.09-15.45c2.88-11.54-5.77-14,0-17.55,2-1.22,8.06-1.45,9.71-1.49A1.39,1.39,0,0,1,227.49,133.89Z" style="fill:#79D07E"></path><path d="M195.55,154.28a3,3,0,0,0,2.6-.36l3-1.59c5.4-2.82,17.25-7.83,18.37-9.15,2.41-2.87.4-7.61-2-7.75-2.78-.16-17.3,9.36-17.3,9.36C190,150.72,193.41,153.82,195.55,154.28Z" style="fill:#79D07E"></path><path d="M226.15,178.21l11-1.71.92-.15,2.38-.37.91-.14,6.46-1c.2-.06.36-.16.35-.29l-.13-2.11c0-.15-.2-.24-.42-.21l-6.41.91-.77.11-3.17.45-.75.1-10.62,1.51a.45.45,0,0,0-.36.24l.17,2.39C225.67,178.11,225.89,178.24,226.15,178.21Z" style="fill:#79D07E"></path><path d="M226.15,178.21l11-1.71.92-.15,2.38-.37.91-.14,6.46-1c.2-.06.36-.16.35-.29l-.13-2.11c0-.15-.2-.24-.42-.21l-6.41.91-.77.11-3.17.45-.75.1-10.62,1.51a.45.45,0,0,0-.36.24l.17,2.39C225.67,178.11,225.89,178.24,226.15,178.21Z" style="fill:#fff;opacity:0.2"></path><path d="M244.85,175.59l-.71.11a.2.2,0,0,1-.27-.13l-.14-3c0-.08.11-.18.25-.21l.71-.11a.2.2,0,0,1,.27.13l.14,3A.28.28,0,0,1,244.85,175.59Z" style="fill:#263238"></path><path d="M232.6,177.64l-.67.1a.19.19,0,0,1-.25-.12l-.14-3c0-.08.1-.18.24-.19l.67-.11a.18.18,0,0,1,.25.12l.14,3C232.85,177.53,232.74,177.61,232.6,177.64Z" style="fill:#263238"></path><path d="M170.59,162.93l1.33,1.25,17.13-17.28c2.72-2.75,6.06-3.91,9.54-.57,3.26,3.12,2.85,7.07.14,9.82l-17,17.33,1.32,1.25,17-17.33c3.14-3.2,4.47-7-.65-11.89s-8.48-3.06-11.65.13Z" style="fill:#79D07E"></path><path d="M155.92,165.45,182,190.15l16.53-16.93a4.1,4.1,0,0,0-.06-5.85l-18.91-18a5.53,5.53,0,0,0-7.7.14Z" style="fill:#79D07E"></path><path d="M158.81,168.19l20.31,19.25a4.07,4.07,0,0,0,5.69-.18l13.71-14a4.1,4.1,0,0,0-.06-5.85l-18.91-18a5.53,5.53,0,0,0-7.7.14l-13.07,13.11A3.89,3.89,0,0,0,158.81,168.19Z" style="fill:#fff;opacity:0.4"></path><g style="opacity:0.30000000000000004"><path d="M170.59,162.93l-.44,1.75,1.77-.5,17.13-17.28c2.72-2.75,6.06-3.91,9.54-.57,3.26,3.12,2.85,7.07.14,9.82l-17,17.33-.41,1.78,1.73-.53,17-17.33c3.14-3.2,4.47-7-.65-11.89s-8.48-3.06-11.65.13Z"></path></g><polygon points="187.92 166.42 190.09 168.49 190.88 167.68 188.71 165.62 187.92 166.42" style="fill:#79D07E"></polygon><polygon points="182.8 171.63 184.97 173.7 185.76 172.89 183.59 170.82 182.8 171.63" style="fill:#79D07E"></polygon><polygon points="176.78 155.81 178.96 157.89 179.75 157.08 177.58 155.01 176.78 155.81" style="fill:#79D07E"></polygon><polygon points="171.63 161.01 173.81 163.08 174.61 162.28 172.43 160.2 171.63 161.01" style="fill:#79D07E"></polygon><polygon points="180.47 160.22 185.13 164.65 186.82 162.93 182.17 158.5 180.47 160.22" style="fill:#fff"></polygon><path d="M193.81,150.07c-1.3,1.68-4.19,14.52-3.72,22.33a7,7,0,0,1-.18,1.08c.11.7,1.66-.14,2.46-.7.44-.31,6.89-16.8,8.34-20.19C202.28,148.92,194.63,149,193.81,150.07Z" style="fill:#79D07E"></path><path d="M192.66,172.24l2,4.56-6-.1s-.08-3.16,1.44-4.94Z" style="fill:#ffb573"></path><path d="M190.74,180l-.46-.08a2.2,2.2,0,0,1-1.67-2.87l.12-.36,6,.09-1.79,2.38A2.18,2.18,0,0,1,190.74,180Z" style="fill:#ffb573"></path><path d="M236.45,130.78c-1.25,2.2-1.74,3.11.91,5.54.56.52.56,8.89.66,9.65.17,1.21-.63,4.45-3.28.47-3.48-5.22-7.22-12.56-7.22-12.56,2.88-1.24,3.65-7.35,3.47-11.31Z" style="fill:#ffb573"></path><path d="M232.68,127.83c-.27,1.58,1.62,3.85,2.95,4.68a10.14,10.14,0,0,1,.82-1.73l-2.79-4.92A5.36,5.36,0,0,0,232.68,127.83Z" style="opacity:0.2;isolation:isolate"></path><path d="M229.41,113.29a7.93,7.93,0,0,1,10.48-4c5.66,2.48,6.28,11.18,4.91,16.42-1.49,5.84-8.67,7.38-13,2.71-2.9-3.11-2.86-5.61-3.06-11.47A7.87,7.87,0,0,1,229.41,113.29Z" style="fill:#ffb573"></path><path d="M241.48,123.52a2.48,2.48,0,0,0,2.05-.33,14.81,14.81,0,0,1-2-3.74Z" style="fill:#ed893e"></path><path d="M237,123.73a.14.14,0,0,1,.05-.19.14.14,0,0,1,.19,0,3.74,3.74,0,0,0,3,1.57.14.14,0,0,1,.13.14h0a.14.14,0,0,1-.14.13,3.91,3.91,0,0,1-.68-.06A4,4,0,0,1,237,123.73Z" style="fill:#263238"></path><path d="M227.52,120.82c1.12-1.28,2.13-1.38,3.35-.2.24-1,.47-2.07.71-3,.34-1.39,2.38-3.06,2.73-4.45-2.05-2.47-6.13-2.62-8.83-.89s-3.09,9-7.34,10.6a14,14,0,0,1-3.42.55,12.21,12.21,0,0,0-5.95,2,11.42,11.42,0,0,0-4.49,6.23,5.93,5.93,0,0,1,5.19-1.5,28,28,0,0,1,3.62,2,9.16,9.16,0,0,0,7.58.29,8.62,8.62,0,0,0,3.47-2.84c1-1.31,3.12-2.4,7-2,0,0-.84-4.31-1.23-6.72Z" style="fill:#263238"></path><path d="M226.85,120.81a1.91,1.91,0,0,1,2-1.89c1.46.06,2.33,1.93,2.48,3.2s-.77,2.58-2.12,1.93a4.34,4.34,0,0,1-2.17-2.46A1.92,1.92,0,0,1,226.85,120.81Z" style="fill:#ffb573"></path><path d="M237.37,118.32c-.05.56.21,1,.58,1.07s.7-.4.74-1-.22-1-.58-1.06S237.41,117.75,237.37,118.32Z" style="fill:#263238"></path><path d="M243.09,119.11c0,.56.22,1,.59,1.07s.69-.4.74-1-.22-1-.58-1.07S243.13,118.54,243.09,119.11Z" style="fill:#263238"></path><path d="M243.67,118.16l1.38-.27S244.27,118.88,243.67,118.16Z" style="fill:#263238"></path><path d="M236.19,115.91a.29.29,0,0,1-.13-.08.28.28,0,0,1,0-.4h0a3.38,3.38,0,0,1,3-.91.31.31,0,0,1,.21.35.28.28,0,0,1-.34.21,2.78,2.78,0,0,0-2.43.78A.29.29,0,0,1,236.19,115.91Z" style="fill:#263238"></path><path d="M245.31,117.4a.52.52,0,0,1-.11-.1,2.82,2.82,0,0,0-2.15-1.37.29.29,0,0,1-.29-.28h0a.3.3,0,0,1,.3-.28,3.37,3.37,0,0,1,2.63,1.63.29.29,0,0,1-.38.41Z" style="fill:#263238"></path><path d="M238,117.37l1.37-.27S238.55,118.09,238,117.37Z" style="fill:#263238"></path><polygon points="229.34 124.16 227.65 127 226.51 127.11 226.72 126.02 229.34 124.16" style="fill:#79D07E"></polygon><path d="M228.29,132.71c-1,1.62-3.5,2.82-4.64,4,1.85.24,6.17,2.86,7.6,4,.66,0-4,.1-5,.86,3.94,1.13,9.53,7.09,12.29,10.12-1.74-5.95-5.61-14.4-9.74-19Z" style="fill:#263238"></path><path d="M251.21,151.22a96.48,96.48,0,0,1,4.35,15.64c-1.66.59-5.07,3.31-7.12,3.91-.8.25-1.4.16-1.61-.49-6.16-19.72-7.64-29.73-10.69-36.1a49.36,49.36,0,0,1,5.41.63c1.18.2,4,5.17,4,5.17a25.49,25.49,0,0,0,2.27,2.86c2.21,2.42,3.64,3,3.67,3.79A16.19,16.19,0,0,1,251.21,151.22Z" style="fill:#79D07E"></path><path d="M235.37,133.43l5.53,1.75a9.81,9.81,0,0,0-2.28,5l4.16-.28a23.78,23.78,0,0,0-4.12,11.83C236.2,146,235.37,133.43,235.37,133.43Z" style="fill:#263238"></path><path d="M244.76,115.56c-.11-1.6-1.91-4.2-3.57-3.16a3.62,3.62,0,0,0-3.11-1.48,4.23,4.23,0,0,0-3.14,1.47s-.13.2-.17.27a16.75,16.75,0,0,0-1.36-1c-2-.73-4-.1-6,.84-2.52,1.21-2.55,6.52-4.48,8.53s-13.56,4.48-17.41-1.83c2.9,1.25,8.59.53,14.31-6.87,2.59-3.34,7.88-7.6,17.74-5.22C240.94,107.88,245.07,112.14,244.76,115.56Z" style="fill:#263238"></path></g></svg>